<svg width="143" height="31" viewBox="0 0 143 31" fill="none" xmlns="http://www.w3.org/2000/svg">
<path d="M34.4333 0.5C33.2479 2.54128 32.7458 2.71374 30.5859 3.40009C31.5293 5.35475 32.5148 5.61016 31.9325 8.04024L34.5441 7.12884L36.934 8.04024L36.8844 5.53456L38.473 3.40009L36.0132 2.70407L34.4333 0.5Z" fill="#ECB913"/>
<path d="M59.0566 5.14014V5.33348H59.826L59.0566 5.14014ZM58.0947 5.33348L58.2871 5.52682L58.0947 5.33348Z" fill="#A1A1A1"/>
<path d="M58.2871 5.3335L58.4795 5.52684L58.2871 5.3335Z" fill="#616161"/>
<path d="M57.9027 5.52672V20.8005C57.9027 22.6336 57.3229 25.6615 58.0454 27.353C58.4531 28.3073 60.7266 28.7845 61.2493 27.7001C62.0572 26.0236 61.3653 22.4735 61.3653 20.6072C63.1914 22.4426 64.9547 24.3423 66.7441 26.2139C67.5937 27.1028 68.4627 28.3203 69.8292 28.3023C70.9815 28.2872 72.2086 26.9864 71.444 25.8602C70.1222 23.9133 66.7391 20.8195 64.6355 19.8338C66.4453 18.099 69.4058 16.4498 70.6079 14.227C71.3074 12.9338 70.1359 11.3453 68.6752 11.6929C67.7653 11.9094 66.9982 13.0124 66.3668 13.647C64.7646 15.2573 63.2191 17.1679 61.3653 18.4805V9.39351C61.3653 8.42778 61.6787 6.76719 61.0569 5.95748C60.3398 5.02404 58.8851 5.34344 57.9027 5.52672Z" fill="#030303"/>
<path d="M60.4033 5.3335L60.5957 5.52684L60.4033 5.3335Z" fill="#616161"/>
<path d="M60.5955 5.3335L60.7878 5.52684L60.5955 5.3335ZM57.71 5.52684L57.9023 5.72017L57.71 5.52684Z" fill="#A1A1A1"/>
<path d="M60.7872 5.52686L60.9796 5.72019L60.7872 5.52686ZM57.7734 5.84915L57.8377 5.97792L57.7734 5.84915ZM60.9796 5.72019L61.172 5.91353L60.9796 5.72019ZM61.172 5.91353L61.3643 6.10687L61.172 5.91353Z" fill="#616161"/>
<path d="M57.71 6.10693L57.9023 6.30027L57.71 6.10693Z" fill="#A1A1A1"/>
<path d="M57.71 6.30029L57.9023 6.49363L57.71 6.30029Z" fill="#616161"/>
<path d="M61.3649 6.30029V8.04035H61.5573L61.3649 6.30029ZM57.71 6.49363V26.6009H57.9023V12.6805L57.71 6.49363Z" fill="#A1A1A1"/>
<path d="M79.0627 6.58324C77.8931 6.79089 76.5833 7.11666 75.6001 7.80824C72.6725 9.86769 72.4487 14.6412 75.4079 16.7813C77.4661 18.2698 80.0947 18.4303 82.3329 19.5105C83.6004 20.1222 84.6242 21.2337 84.407 22.734C83.9219 26.0885 79.2093 25.8068 76.9467 24.7933C76.1439 24.4337 74.9901 23.1588 74.0725 23.6719C72.3703 24.6238 73.6258 26.8212 74.8306 27.4869C77.0094 28.6908 80.3046 28.8817 82.7177 28.4445C83.9048 28.2293 85.2192 27.7429 86.1631 26.979C88.737 24.8958 89.161 20.5074 86.747 18.1119C85.2357 16.6123 83.1391 16.0704 81.1787 15.4531C79.661 14.9751 77.1161 14.3653 77.1956 12.2937C77.3227 8.98239 82.2443 9.45646 84.2566 10.2113C84.9814 10.4833 86.1285 11.3974 86.8739 10.8201C88.0997 9.87078 87.1656 8.29372 86.1793 7.64777C84.3314 6.43727 81.1905 6.20526 79.0627 6.58324Z" fill="#ECB913"/>
<path d="M15.71 6.75122L15.8381 6.81579L15.71 6.75122Z" fill="#A1A1A1"/>
<path d="M15.9668 6.68677L16.1592 6.88011L15.9668 6.68677Z" fill="#616161"/>
<path d="M16.159 6.68677V6.88011H17.1209L16.159 6.68677ZM27.3163 6.68677L27.5087 6.88011L27.3163 6.68677ZM14.6201 6.88011L14.4277 12.487V23.5073H14.6201C14.6201 18.1851 15.433 12.1157 14.6201 6.88011Z" fill="#A1A1A1"/>
<path d="M14.8125 6.88013L15.0049 7.07347L14.8125 6.88013Z" fill="#616161"/>
<path d="M2.88551 23.1208L5.00155 24.6676C4.8792 22.2684 3.65864 19.3165 2.69315 17.1273C1.40218 18.8618 0.507095 22.5255 0.192383 24.6676L2.30841 23.3142C3.13905 28.9666 11.5282 32.8978 16.1032 28.8187C18.8912 26.3328 18.2748 22.0169 18.2748 18.674C20.6496 21.0608 22.8332 23.6305 25.2002 26.0209C26.1346 26.9646 27.1916 28.3746 28.6626 28.3124C29.9453 28.2581 30.9951 26.9961 30.1396 25.8276C28.1182 23.0663 24.698 19.5151 21.9298 17.514V17.3207C24.3604 15.5999 27.4278 12.636 29.1141 10.1671C30.0323 8.82299 29.4313 6.70167 27.5084 6.97544C26.3652 7.13804 25.5221 8.61264 24.798 9.39373C22.6387 11.7237 20.4747 14.0613 18.2748 16.354C18.2748 13.9598 19.0637 9.87592 18.1029 7.67939C17.6898 6.73512 15.0294 6.36256 14.681 7.50442C14.3602 8.55638 14.6199 10.0377 14.6199 11.1338V20.2207C14.6199 22.0387 14.8171 23.9566 13.9701 25.6335C11.503 30.5178 4.18245 27.2113 2.88551 23.1208Z" fill="#030303"/>
<path d="M17.3125 6.88013L17.5049 7.07347L17.3125 6.88013Z" fill="#616161"/>
<path d="M17.5049 6.88013L17.6972 7.07347L17.5049 6.88013ZM26.9308 6.88013L27.1232 7.07347L26.9308 6.88013Z" fill="#A1A1A1"/>
<path d="M28.0215 6.94458L28.1496 7.00915L28.0215 6.94458Z" fill="#616161"/>
<path d="M28.2782 6.88013L28.4706 7.07347L28.2782 6.88013ZM26.7393 7.07347L26.9316 7.26681L26.7393 7.07347ZM28.6629 7.07347L28.8553 7.26681L28.6629 7.07347Z" fill="#A1A1A1"/>
<path d="M90.7971 7.26678V20.0272C90.7971 21.9704 90.4112 24.4141 91.2913 26.2139C92.4355 28.5538 95.2966 28.6364 97.53 28.5264C98.7361 28.467 100.234 27.8487 100.191 26.4076C100.125 24.1896 96.0647 26.4534 94.8095 24.4655C94.2897 23.6424 94.4521 22.5021 94.4521 21.5739V15.1937C95.8469 15.1937 98.1813 15.6407 99.428 14.9389C100.286 14.4559 100.531 12.8932 99.6096 12.3387C98.3315 11.5695 96.2099 12.9747 94.898 12.0948C93.8475 11.3903 94.7412 9.10176 94.3094 8.05077C93.7346 6.65234 91.9313 7.17688 90.7971 7.26678Z" fill="#ECB913"/>
<path d="M26.5462 7.26685L26.7385 7.46019L26.5462 7.26685ZM18.082 7.46019L18.2744 7.65352L18.082 7.46019Z" fill="#A1A1A1"/>
<path d="M18.082 7.65356L18.2744 7.8469L18.082 7.65356Z" fill="#616161"/>
<path d="M25.9697 7.84692L26.1621 8.04026L25.9697 7.84692Z" fill="#A1A1A1"/>
<path d="M29.4316 7.84692L29.624 8.04026L29.4316 7.84692Z" fill="#616161"/>
<path d="M18.2744 8.04028V16.1605H18.4668C18.4668 13.8488 19.1614 10.1647 18.2744 8.04028ZM25.7767 8.04028L25.9691 8.23362L25.7767 8.04028Z" fill="#A1A1A1"/>
<path d="M61.3652 8.04028V17.7073H61.5576C61.5576 14.991 62.4057 10.5322 61.3652 8.04028Z" fill="#616161"/>
<path d="M29.624 8.23364V9.007H29.8164L29.624 8.23364Z" fill="#A1A1A1"/>
<path d="M25.2001 8.81348L25.3925 9.00682L25.2001 8.81348ZM25.0078 9.00682L25.2001 9.20016L25.0078 9.00682ZM24.8154 9.20016L25.0078 9.3935L24.8154 9.20016ZM24.623 9.3935L24.8154 9.58683L24.623 9.3935ZM29.4322 9.3935L29.6246 9.58683L29.4322 9.3935Z" fill="#616161"/>
<path d="M24.4306 9.58691L24.623 9.78025L24.4306 9.58691ZM24.2383 9.78025L24.4306 9.97359L24.2383 9.78025Z" fill="#A1A1A1"/>
<path d="M29.2393 9.78027L29.4316 9.97361L29.2393 9.78027Z" fill="#616161"/>
<path d="M24.0458 9.97363L24.2382 10.167L24.0458 9.97363ZM23.8535 10.167L24.0458 10.3603L23.8535 10.167ZM23.6611 10.3603L23.8535 10.5537L23.6611 10.3603ZM28.855 10.3603L29.0473 10.5537L28.855 10.3603ZM23.4687 10.5537L23.6611 10.747L23.4687 10.5537ZM28.6626 10.5537L28.855 10.747L28.6626 10.5537ZM28.4702 10.747L28.6626 10.9403L28.4702 10.747ZM23.084 10.9403L23.2764 11.1337L23.084 10.9403ZM28.2779 10.9403L28.4702 11.1337L28.2779 10.9403ZM28.0855 11.1337L28.2779 11.327L28.0855 11.1337ZM27.8931 11.327L28.0855 11.5203L27.8931 11.327ZM45.2061 11.327V11.5203H45.7832L45.2061 11.327Z" fill="#A1A1A1"/>
<path d="M45.7832 11.3269V11.5202H48.6687L45.7832 11.3269Z" fill="#616161"/>
<path d="M48.7969 11.3914L48.925 11.4559L48.7969 11.3914Z" fill="#A1A1A1"/>
<path d="M112.15 17.7072C109.161 18.6597 104.911 17.6159 102.607 20.2542C100.794 22.3299 101.346 26.0932 103.686 27.4992C106.532 29.2091 112.357 29.2281 114.933 26.9178C116.161 25.8172 115.613 23.0795 115.613 21.5739C115.613 17.6956 116.339 13.1822 111.765 11.749C111.03 11.5184 110.226 11.3971 109.457 11.3443C107.615 11.2173 105.335 11.4006 103.694 12.3198C102.763 12.8416 102.165 13.9974 102.896 14.9687C103.637 15.9528 105.43 14.7626 106.379 14.549C109.371 13.8754 111.396 14.6371 112.15 17.7072ZM122.538 28.1475V19.0605C122.538 18.0811 122.194 16.2683 122.846 15.4633C124.042 13.9881 127.266 14.3113 128.886 14.6137C131.19 9.80111 122.491 11.4402 120.425 12.6716C117.589 14.3618 118.883 21.1702 118.883 24.0874C118.883 25.107 118.556 26.8527 119.218 27.7069C119.989 28.7016 121.496 28.2302 122.538 28.1475ZM135.426 11.4097C134.427 11.5539 133.432 11.7794 132.541 12.2753C129.922 13.7329 129.341 17.5993 131.774 19.5383C133.322 20.7712 135.517 20.9815 137.35 21.5795C138.352 21.9065 139.538 22.6336 139.232 23.8938C138.586 26.5511 134.604 25.6323 132.926 24.8874C132.305 24.6117 131.361 23.8967 130.698 24.4058C129.368 25.4278 130.519 27.1098 131.579 27.7173C133.442 28.7845 136.437 28.8184 138.504 28.4445C139.46 28.2716 140.4 27.929 141.195 27.3635C143.35 25.8303 143.64 22.1833 141.717 20.3402C140.434 19.1114 138.635 18.6849 136.965 18.2626C135.923 17.9989 133.922 17.5919 133.96 16.1604C134.031 13.4956 138.426 14.326 139.851 14.9184C140.379 15.1381 141.161 15.6007 141.716 15.2345C142.857 14.4834 142.035 12.8522 141.189 12.2927C139.668 11.2869 137.176 11.1572 135.426 11.4097Z" fill="#ECB913"/>
<path d="M27.7012 11.5203L27.8935 11.7136L27.7012 11.5203ZM33.8569 11.5203V11.7136H34.8187L33.8569 11.5203ZM44.373 11.5846L44.5011 11.6492L44.373 11.5846Z" fill="#A1A1A1"/>
<path d="M44.6289 11.5203L44.8213 11.7136L44.6289 11.5203Z" fill="#616161"/>
<path d="M44.821 11.61C43.2487 11.8892 41.0217 12.5278 40.1951 14.0345C39.7861 14.7798 40.0081 15.7343 40.0116 16.5471C40.0203 18.4805 40.0118 20.4139 40.0118 22.3473C40.0118 24.0551 39.1342 28.0398 41.5507 28.2647C44.0586 28.4978 43.4744 26.0293 43.4744 24.2807C43.4744 21.9367 42.662 17.7654 43.5904 15.6216C44.2019 14.2097 47.2567 14.0656 48.4759 14.4639C52.0168 15.6199 50.7843 21.5672 50.7843 24.4741C50.7843 26.2128 50.4911 28.3921 52.9003 28.268C55.4994 28.1342 54.4393 22.3897 54.4393 20.4139C54.4393 18.5679 54.6291 16.5464 53.8853 14.8071C52.4271 11.3985 48.0256 11.0406 44.821 11.61Z" fill="#030303"/>
<path d="M49.6309 11.5203L49.8232 11.7136L49.6309 11.5203Z" fill="#616161"/>
<path d="M49.8232 11.5203L50.0156 11.7136L49.8232 11.5203ZM68.2904 11.5203L68.4828 11.7136L68.2904 11.5203Z" fill="#A1A1A1"/>
<path d="M68.9961 11.5847L69.1242 11.6493L68.9961 11.5847Z" fill="#616161"/>
<path d="M69.2523 11.5203L69.4447 11.7136L69.2523 11.5203ZM27.5088 11.7136L27.7012 11.9069L27.5088 11.7136ZM33.0874 11.7136L33.2798 11.9069L33.0874 11.7136Z" fill="#A1A1A1"/>
<path d="M33.2793 11.7136L33.4717 11.907L33.2793 11.7136Z" fill="#616161"/>
<path d="M32.7028 11.9069V18.4804V22.9272C32.7028 24.2004 32.2894 26.3948 32.9564 27.5233C33.4355 28.334 35.5404 28.6392 36.16 27.8382C36.7206 27.1136 36.3578 25.1615 36.3578 24.2806V15.7737C36.3578 14.7708 36.6383 13.2017 36.0004 12.3475C35.2646 11.362 33.7181 11.7779 32.7028 11.9069Z" fill="#030303"/>
<path d="M35.2031 11.7136L35.3955 11.907L35.2031 11.7136Z" fill="#616161"/>
<path d="M35.3955 11.7136L35.5879 11.907L35.3955 11.7136ZM43.6673 11.7136L43.8596 11.907L43.6673 11.7136Z" fill="#A1A1A1"/>
<path d="M43.8594 11.7136L44.0517 11.907L43.8594 11.7136ZM50.3998 11.7136L50.5922 11.907L50.3998 11.7136Z" fill="#616161"/>
<path d="M68.0977 11.7136L68.29 11.907L68.0977 11.7136Z" fill="#A1A1A1"/>
<path d="M69.829 11.7136L70.0214 11.907L69.829 11.7136ZM22.3145 11.907L22.5068 12.1003L22.3145 11.907Z" fill="#616161"/>
<path d="M27.3164 11.907L27.5088 12.1003L27.3164 11.907ZM35.7805 11.907L35.9729 12.1003L35.7805 11.907ZM43.0905 11.907L43.2828 12.1003L43.0905 11.907ZM50.9775 11.907L51.1699 12.1003L50.9775 11.907ZM67.9058 11.907L68.0981 12.1003L67.9058 11.907ZM70.2142 11.907L70.4065 12.1003L70.2142 11.907Z" fill="#A1A1A1"/>
<path d="M22.1221 12.1003L22.3144 12.2937L22.1221 12.1003Z" fill="#616161"/>
<path d="M27.124 12.1003L27.3164 12.2937L27.124 12.1003ZM35.9729 12.1003L36.1652 12.2937L35.9729 12.1003ZM42.5133 12.1003L42.7057 12.2937L42.5133 12.1003Z" fill="#A1A1A1"/>
<path d="M42.7051 12.1003L42.8974 12.2937L42.7051 12.1003Z" fill="#616161"/>
<path d="M51.3623 12.1003L51.5547 12.2937L51.3623 12.1003ZM67.7135 12.1003L67.9058 12.2937L67.7135 12.1003ZM70.4066 12.1003L70.599 12.2937L70.4066 12.1003Z" fill="#A1A1A1"/>
<path d="M21.9297 12.2937L22.1221 12.487L21.9297 12.2937Z" fill="#616161"/>
<path d="M26.9316 12.2937L27.124 12.487L26.9316 12.2937Z" fill="#A1A1A1"/>
<path d="M42.1279 12.2937L42.3203 12.487L42.1279 12.2937Z" fill="#616161"/>
<path d="M51.7471 12.2937L51.9394 12.487L51.7471 12.2937ZM67.5211 12.2937L67.7135 12.487L67.5211 12.2937ZM70.599 12.2937L70.7914 12.487L70.599 12.2937Z" fill="#A1A1A1"/>
<path d="M21.7373 12.4871L21.9297 12.6804L21.7373 12.4871Z" fill="#616161"/>
<path d="M26.7393 12.4871L26.9316 12.6804L26.7393 12.4871ZM36.1652 12.4871L36.3576 12.6804L36.1652 12.4871Z" fill="#A1A1A1"/>
<path d="M41.7432 12.4871L41.9355 12.6804L41.7432 12.4871Z" fill="#616161"/>
<path d="M52.1309 12.4871L52.3232 12.6804L52.1309 12.4871ZM67.3278 12.4871L67.5202 12.6804L67.3278 12.4871Z" fill="#A1A1A1"/>
<path d="M21.5449 12.6804L21.7373 12.8738L21.5449 12.6804Z" fill="#616161"/>
<path d="M26.5469 12.6804L26.7392 12.8738L26.5469 12.6804Z" fill="#A1A1A1"/>
<path d="M36.165 12.6804L36.3574 12.8738L36.165 12.6804ZM41.3589 12.6804L41.5513 12.8738L41.3589 12.6804Z" fill="#616161"/>
<path d="M52.3236 12.6804L52.5159 12.8738L52.3236 12.6804ZM67.1358 12.6804L67.3281 12.8738L67.1358 12.6804ZM70.7907 12.6804L70.9831 12.8738L70.7907 12.6804ZM21.3525 12.8738L21.5449 13.0671L21.3525 12.8738ZM26.3541 12.8738L26.5464 13.0671L26.3541 12.8738ZM40.9739 12.8738L41.1663 13.0671L40.9739 12.8738Z" fill="#A1A1A1"/>
<path d="M52.5156 12.8738L52.708 13.0671L52.5156 12.8738Z" fill="#616161"/>
<path d="M66.9434 12.8738L67.1357 13.0671L66.9434 12.8738Z" fill="#A1A1A1"/>
<path d="M70.8545 13.0027L70.9187 13.1315L70.8545 13.0027Z" fill="#616161"/>
<path d="M21.1602 13.0671L21.3525 13.2605L21.1602 13.0671ZM26.1617 13.0671L26.3541 13.2605L26.1617 13.0671Z" fill="#A1A1A1"/>
<path d="M40.7812 13.0671L40.9736 13.2605L40.7812 13.0671ZM52.708 13.0671L52.9003 13.2605L52.708 13.0671Z" fill="#616161"/>
<path d="M66.751 13.0671L66.9434 13.2605L66.751 13.0671ZM20.9678 13.2605L21.1601 13.4538L20.9678 13.2605ZM25.9693 13.2605L26.1617 13.4538L25.9693 13.2605ZM40.3968 13.2605L40.5892 13.4538L40.3968 13.2605Z" fill="#A1A1A1"/>
<path d="M40.5889 13.2605L40.7812 13.4538L40.5889 13.2605ZM52.9003 13.2605L53.0927 13.4538L52.9003 13.2605Z" fill="#616161"/>
<path d="M66.5586 13.2605L66.751 13.4538L66.5586 13.2605ZM20.7754 13.4538L20.9678 13.6472L20.7754 13.4538ZM25.7769 13.4538L25.9693 13.6472L25.7769 13.4538Z" fill="#A1A1A1"/>
<path d="M40.3975 13.4539L40.5898 13.6472L40.3975 13.4539ZM53.0937 13.4539L53.286 13.6472L53.0937 13.4539Z" fill="#616161"/>
<path d="M66.3662 13.4539L66.5586 13.6472L66.3662 13.4539Z" fill="#A1A1A1"/>
<path d="M70.8545 13.5828L70.9187 13.7115L70.8545 13.5828Z" fill="#616161"/>
<path d="M20.583 13.647L20.7754 13.8403L20.583 13.647ZM25.5845 13.647L25.7769 13.8403L25.5845 13.647Z" fill="#A1A1A1"/>
<path d="M40.2051 13.647L40.3974 13.8403L40.2051 13.647ZM53.286 13.647L53.4784 13.8403L53.286 13.647Z" fill="#616161"/>
<path d="M66.1738 13.647L66.3662 13.8403L66.1738 13.647ZM20.3906 13.8403L20.583 14.0337L20.3906 13.8403ZM25.3921 13.8403L25.5845 14.0337L25.3921 13.8403ZM40.012 13.8403L40.2044 14.0337L40.012 13.8403ZM53.4777 13.8403L53.67 14.0337L53.4777 13.8403ZM65.9815 13.8403L66.1738 14.0337L65.9815 13.8403ZM70.7906 13.8403L70.983 14.0337L70.7906 13.8403ZM20.1982 14.0337L20.3906 14.227L20.1982 14.0337ZM25.1998 14.0337L25.3921 14.227L25.1998 14.0337Z" fill="#A1A1A1"/>
<path d="M53.4775 14.0337L53.6699 14.227L53.4775 14.0337Z" fill="#616161"/>
<path d="M65.7891 14.0337L65.9815 14.227L65.7891 14.0337ZM20.0059 14.227L20.1982 14.4204L20.0059 14.227ZM25.0074 14.227L25.1998 14.4204L25.0074 14.227ZM39.8837 14.356L39.9479 14.4848L39.8837 14.356Z" fill="#A1A1A1"/>
<path d="M46.3604 14.2271V14.4204H48.0917L46.3604 14.2271Z" fill="#616161"/>
<path d="M53.6704 14.2271L53.8628 14.4204L53.6704 14.2271ZM65.5971 14.2271L65.7895 14.4204L65.5971 14.2271ZM70.5987 14.2271L70.791 14.4204L70.5987 14.2271ZM24.8154 14.4204L25.0078 14.6137L24.8154 14.4204Z" fill="#A1A1A1"/>
<path d="M45.3984 14.4204L45.5908 14.6137L45.3984 14.4204Z" fill="#616161"/>
<path d="M45.5908 14.4204L45.7832 14.6137L45.5908 14.4204ZM48.4763 14.4204L48.6687 14.6137L48.4763 14.4204Z" fill="#A1A1A1"/>
<path d="M48.6689 14.4204L48.8613 14.6137L48.6689 14.4204ZM53.6705 14.4204L53.8628 14.6137L53.6705 14.4204Z" fill="#616161"/>
<path d="M65.4048 14.4204L65.5971 14.6137L65.4048 14.4204ZM70.4063 14.4204L70.5987 14.6137L70.4063 14.4204ZM24.623 14.6137L24.8154 14.8071L24.623 14.6137Z" fill="#A1A1A1"/>
<path d="M39.8203 14.6138L40.0127 14.8071L39.8203 14.6138ZM44.6295 14.6138L44.8218 14.8071L44.6295 14.6138Z" fill="#616161"/>
<path d="M44.8213 14.6138L45.0137 14.8071L44.8213 14.6138ZM49.0534 14.6138L49.2457 14.8071L49.0534 14.6138ZM53.8625 14.6138L54.0549 14.8071L53.8625 14.6138Z" fill="#A1A1A1"/>
<path d="M65.2119 14.6138L65.4043 14.8071L65.2119 14.6138Z" fill="#616161"/>
<path d="M70.2139 14.6138L70.4062 14.8071L70.2139 14.6138Z" fill="#A1A1A1"/>
<path d="M19.6211 14.8071L19.8135 15.0005L19.6211 14.8071Z" fill="#616161"/>
<path d="M24.4307 14.8071L24.623 15.0005L24.4307 14.8071Z" fill="#A1A1A1"/>
<path d="M44.2441 14.8071L44.4365 15.0005L44.2441 14.8071Z" fill="#616161"/>
<path d="M49.4385 14.8071L49.6308 15.0005L49.4385 14.8071Z" fill="#A1A1A1"/>
<path d="M53.8623 14.8071L54.0547 15.0005L53.8623 14.8071ZM65.0196 14.8071L65.2119 15.0005L65.0196 14.8071Z" fill="#616161"/>
<path d="M70.0215 14.8071L70.2139 15.0005L70.0215 14.8071ZM24.2383 15.0005L24.4306 15.1938L24.2383 15.0005Z" fill="#A1A1A1"/>
<path d="M39.8203 15.0005V26.6009H40.0127V18.6739L39.8203 15.0005Z" fill="#616161"/>
<path d="M43.8594 15.0005L44.0517 15.1938L43.8594 15.0005Z" fill="#A1A1A1"/>
<path d="M64.8271 15.0005L65.0195 15.1938L64.8271 15.0005Z" fill="#616161"/>
<path d="M69.8291 15.0005L70.0215 15.1938L69.8291 15.0005ZM24.0459 15.1938L24.2383 15.3872L24.0459 15.1938ZM43.4749 15.1938L43.6673 15.3872L43.4749 15.1938ZM49.823 15.1938L50.0154 15.3872L49.823 15.1938ZM54.0551 15.1938L54.2474 15.3872L54.0551 15.1938Z" fill="#A1A1A1"/>
<path d="M64.6348 15.1938L64.8271 15.3872L64.6348 15.1938Z" fill="#616161"/>
<path d="M69.6367 15.1938L69.8291 15.3872L69.6367 15.1938Z" fill="#A1A1A1"/>
<path d="M19.0439 15.3872L19.2363 15.5805L19.0439 15.3872Z" fill="#616161"/>
<path d="M23.8535 15.3872L24.0459 15.5805L23.8535 15.3872ZM50.0154 15.3872L50.2077 15.5805L50.0154 15.3872Z" fill="#A1A1A1"/>
<path d="M54.0547 15.3872L54.2471 15.5805L54.0547 15.3872ZM64.4425 15.3872L64.6348 15.5805L64.4425 15.3872Z" fill="#616161"/>
<path d="M69.4443 15.3872L69.6367 15.5805L69.4443 15.3872Z" fill="#A1A1A1"/>
<path d="M18.8516 15.5806L19.0439 15.7739L18.8516 15.5806Z" fill="#616161"/>
<path d="M23.6611 15.5806L23.8535 15.7739L23.6611 15.5806Z" fill="#A1A1A1"/>
<path d="M50.208 15.5806L50.4004 15.7739L50.208 15.5806ZM64.2508 15.5806L64.4431 15.7739L64.2508 15.5806Z" fill="#616161"/>
<path d="M69.252 15.5806L69.4443 15.7739L69.252 15.5806Z" fill="#A1A1A1"/>
<path d="M18.6592 15.7739L18.8515 15.9673L18.6592 15.7739Z" fill="#616161"/>
<path d="M23.4688 15.7739L23.6611 15.9673L23.4688 15.7739ZM54.3115 15.9029L54.3757 16.0316L54.3115 15.9029Z" fill="#A1A1A1"/>
<path d="M64.0576 15.7739L64.25 15.9673L64.0576 15.7739Z" fill="#616161"/>
<path d="M69.0596 15.7739L69.2519 15.9673L69.0596 15.7739Z" fill="#A1A1A1"/>
<path d="M18.4668 15.967L18.6592 16.1604L18.4668 15.967Z" fill="#616161"/>
<path d="M23.2764 15.967L23.4687 16.1604L23.2764 15.967Z" fill="#A1A1A1"/>
<path d="M50.3996 15.967L50.592 16.1604L50.3996 15.967ZM63.8653 15.967L64.0577 16.1604L63.8653 15.967ZM18.2744 16.1604L18.4668 16.3537L18.2744 16.1604ZM54.247 16.1604V16.7404H54.4393L54.247 16.1604ZM63.6729 16.1604L63.8653 16.3537L63.6729 16.1604ZM68.4821 16.1604L68.6744 16.3537L68.4821 16.1604Z" fill="#616161"/>
<path d="M22.8916 16.3538L23.084 16.5471L22.8916 16.3538Z" fill="#A1A1A1"/>
<path d="M63.4813 16.3538L63.6737 16.5471L63.4813 16.3538ZM68.2905 16.3538L68.4829 16.5471L68.2905 16.3538ZM50.5928 16.5471L50.7851 16.7404L50.5928 16.5471ZM63.289 16.5471L63.4813 16.7404L63.289 16.5471Z" fill="#616161"/>
<path d="M68.0977 16.5471L68.2901 16.7405L68.0977 16.5471ZM22.5068 16.7405L22.6992 16.9338L22.5068 16.7405ZM50.5924 16.7405V26.7941H50.7847V20.0272L50.5924 16.7405Z" fill="#A1A1A1"/>
<path d="M63.0967 16.7405L63.289 16.9338L63.0967 16.7405Z" fill="#616161"/>
<path d="M67.9053 16.7405L68.0976 16.9338L67.9053 16.7405Z" fill="#A1A1A1"/>
<path d="M62.9041 16.9338L63.0964 17.1272L62.9041 16.9338ZM2.69333 17.1272L2.88569 17.3205L2.69333 17.1272ZM62.7117 17.1272L62.9041 17.3205L62.7117 17.1272ZM2.30859 17.3205L2.50096 17.5139L2.30859 17.3205Z" fill="#616161"/>
<path d="M21.9297 17.3206L22.1221 17.5139L21.9297 17.3206Z" fill="#A1A1A1"/>
<path d="M62.5195 17.3206L62.7119 17.5139L62.5195 17.3206Z" fill="#616161"/>
<path d="M2.88574 17.5139L3.07811 17.7073L2.88574 17.5139ZM22.1224 17.5139L22.3148 17.7073L22.1224 17.5139Z" fill="#A1A1A1"/>
<path d="M62.327 17.5139L62.5194 17.7073L62.327 17.5139ZM66.9438 17.5139L67.1362 17.7073L66.9438 17.5139ZM2.88574 17.7073L3.07811 17.9006L2.88574 17.7073Z" fill="#616161"/>
<path d="M22.3145 17.7073L22.5068 17.9006L22.3145 17.7073ZM61.3649 17.7073L61.5572 17.9006L61.3649 17.7073Z" fill="#A1A1A1"/>
<path d="M62.1346 17.7073L62.3269 17.9006L62.1346 17.7073ZM66.7514 17.7073L66.9437 17.9006L66.7514 17.7073ZM2.11621 17.9006L2.30858 18.094L2.11621 17.9006ZM61.3651 17.9006L61.7498 18.4806L61.3651 17.9006ZM61.9422 17.9006L62.1346 18.094L61.9422 17.9006Z" fill="#616161"/>
<path d="M66.5591 17.9006L66.7514 18.094L66.5591 17.9006ZM3.07812 18.094L3.27049 18.2873L3.07812 18.094ZM22.6995 18.094L22.8919 18.2873L22.6995 18.094Z" fill="#A1A1A1"/>
<path d="M61.75 18.094L61.9424 18.2873L61.75 18.094Z" fill="#616161"/>
<path d="M66.3666 18.094L66.559 18.2873L66.3666 18.094ZM1.92383 18.2873L2.11619 18.4807L1.92383 18.2873Z" fill="#A1A1A1"/>
<path d="M3.07812 18.2871L3.27049 18.4804L3.07812 18.2871Z" fill="#616161"/>
<path d="M66.1738 18.2871L66.3662 18.4804L66.1738 18.2871Z" fill="#A1A1A1"/>
<path d="M1.92383 18.4805L2.11619 18.6738L1.92383 18.4805Z" fill="#616161"/>
<path d="M3.27051 18.6738L3.46287 18.8672L3.27051 18.6738ZM18.2751 18.6738V20.0272H18.4675L18.2751 18.6738Z" fill="#A1A1A1"/>
<path d="M23.0841 18.6738L23.2765 18.8672L23.0841 18.6738ZM65.5971 18.6738L65.7895 18.8672L65.5971 18.6738ZM3.27038 18.8672L3.46274 19.0605L3.27038 18.8672ZM23.2765 18.8672L23.4689 19.0605L23.2765 18.8672ZM1.73145 19.0605L1.92381 19.2538L1.73145 19.0605Z" fill="#616161"/>
<path d="M18.6592 19.0605L18.8515 19.2539L18.6592 19.0605Z" fill="#A1A1A1"/>
<path d="M23.4688 19.0605L23.6611 19.2539L23.4688 19.0605ZM65.2123 19.0605L65.4047 19.2539L65.2123 19.0605Z" fill="#616161"/>
<path d="M3.46289 19.2539L3.65526 19.4472L3.46289 19.2539ZM18.8522 19.2539L19.0446 19.4472L18.8522 19.2539Z" fill="#A1A1A1"/>
<path d="M23.6614 19.2539L23.8537 19.4472L23.6614 19.2539ZM65.0202 19.2539L65.2126 19.4472L65.0202 19.2539ZM3.46289 19.4472L3.65526 19.6406L3.46289 19.4472Z" fill="#616161"/>
<path d="M19.0439 19.4473L19.2363 19.6406L19.0439 19.4473Z" fill="#A1A1A1"/>
<path d="M23.8535 19.4473L24.0459 19.6406L23.8535 19.4473Z" fill="#616161"/>
<path d="M64.8277 19.4473L65.02 19.6406L64.8277 19.4473ZM1.53906 19.6406L1.73143 19.8339L1.53906 19.6406ZM19.2368 19.6406L19.4292 19.8339L19.2368 19.6406Z" fill="#A1A1A1"/>
<path d="M64.6353 19.6406L64.8277 19.834L64.6353 19.6406ZM1.53906 19.834L1.73143 20.0273L1.53906 19.834Z" fill="#616161"/>
<path d="M3.65527 19.834L3.84764 20.0273L3.65527 19.834ZM19.4293 19.834L19.6217 20.0273L19.4293 19.834ZM65.0202 19.834L65.2126 20.0273L65.0202 19.834Z" fill="#A1A1A1"/>
<path d="M3.65527 20.0273L3.84764 20.2207L3.65527 20.0273ZM19.6217 20.0273L19.8141 20.2207L19.6217 20.0273Z" fill="#616161"/>
<path d="M65.2124 20.0273L65.4047 20.2207L65.2124 20.0273ZM1.34668 20.2207L1.53905 20.414L1.34668 20.2207ZM18.2749 20.2207V23.8941H18.4673L18.2749 20.2207Z" fill="#A1A1A1"/>
<path d="M19.8135 20.2207L20.0058 20.414L19.8135 20.2207ZM24.6226 20.2207L24.815 20.414L24.6226 20.2207Z" fill="#616161"/>
<path d="M65.4043 20.2207L65.5967 20.414L65.4043 20.2207Z" fill="#A1A1A1"/>
<path d="M20.0059 20.4141L20.1982 20.6074L20.0059 20.4141ZM24.815 20.4141L25.0074 20.6074L24.815 20.4141Z" fill="#616161"/>
<path d="M65.5967 20.4141L65.789 20.6074L65.5967 20.4141Z" fill="#A1A1A1"/>
<path d="M3.84766 20.6074L4.04002 20.8008L3.84766 20.6074ZM20.1988 20.6074L20.3912 20.8008L20.1988 20.6074ZM25.008 20.6074L25.2003 20.8008L25.008 20.6074ZM61.3653 20.6074L61.5576 20.8008L61.3653 20.6074ZM65.7897 20.6074L65.9821 20.8008L65.7897 20.6074Z" fill="#616161"/>
<path d="M111.367 20.7481C109.897 20.5948 106.962 20.7868 105.846 21.8436C104.395 23.2178 105.611 25.3784 107.341 25.5984C108.401 25.7334 111.064 26.0035 111.76 24.971C112.226 24.2789 112.452 20.8612 111.367 20.7481Z" fill="white"/>
<path d="M1.1543 20.8005L1.34666 20.9939L1.1543 20.8005Z" fill="#A1A1A1"/>
<path d="M20.3906 20.8005L20.583 20.9939L20.3906 20.8005ZM25.1998 20.8005L25.3922 20.9939L25.1998 20.8005Z" fill="#616161"/>
<path d="M61.4287 20.9297L61.493 21.0585L61.4287 20.9297Z" fill="#A1A1A1"/>
<path d="M65.9818 20.8005L66.1742 20.9939L65.9818 20.8005ZM1.1543 20.9939L1.34666 21.1872L1.1543 20.9939Z" fill="#616161"/>
<path d="M4.04004 20.9939L4.23241 21.1872L4.04004 20.9939Z" fill="#A1A1A1"/>
<path d="M25.3926 20.9939L25.5849 21.1872L25.3926 20.9939Z" fill="#616161"/>
<path d="M61.75 20.9939L61.9424 21.1872L61.75 20.9939Z" fill="#A1A1A1"/>
<path d="M66.1744 20.9939L66.3668 21.1872L66.1744 20.9939ZM4.04004 21.1872L4.23241 21.3806L4.04004 21.1872ZM20.7759 21.1872L20.9683 21.3806L20.7759 21.1872ZM25.5851 21.1872L25.7775 21.3806L25.5851 21.1872ZM61.3653 21.1872V26.7941H61.5576L61.3653 21.1872Z" fill="#616161"/>
<path d="M61.9424 21.1873L62.1348 21.3806L61.9424 21.1873Z" fill="#A1A1A1"/>
<path d="M66.3662 21.1873L66.5586 21.3806L66.3662 21.1873Z" fill="#616161"/>
<path d="M0.961914 21.3806L1.15428 21.574L0.961914 21.3806Z" fill="#A1A1A1"/>
<path d="M25.7773 21.3806L25.9697 21.574L25.7773 21.3806Z" fill="#616161"/>
<path d="M62.1348 21.3806L62.3271 21.574L62.1348 21.3806Z" fill="#A1A1A1"/>
<path d="M0.961914 21.574L1.15428 21.7673L0.961914 21.574Z" fill="#616161"/>
<path d="M25.9698 21.574L26.1622 21.7673L25.9698 21.574ZM62.3271 21.574L62.5195 21.7673L62.3271 21.574ZM4.23242 21.7673L4.42479 21.9607L4.23242 21.7673ZM21.1607 21.7673L21.353 21.9607L21.1607 21.7673ZM26.1622 21.7673L26.3546 21.9607L26.1622 21.7673Z" fill="#A1A1A1"/>
<path d="M62.5195 21.7673L62.7119 21.9607L62.5195 21.7673Z" fill="#616161"/>
<path d="M67.136 21.7673L67.3284 21.9607L67.136 21.7673ZM0.769531 21.9607L0.961898 22.154L0.769531 21.9607ZM26.3543 21.9607L26.5466 22.154L26.3543 21.9607Z" fill="#A1A1A1"/>
<path d="M62.7119 21.9607L62.9043 22.154L62.7119 21.9607Z" fill="#616161"/>
<path d="M67.3281 21.9607L67.5205 22.154L67.3281 21.9607Z" fill="#A1A1A1"/>
<path d="M0.769531 22.1541L0.961898 22.3474L0.769531 22.1541Z" fill="#616161"/>
<path d="M26.5469 22.1541L26.7392 22.3474L26.5469 22.1541Z" fill="#A1A1A1"/>
<path d="M62.9043 22.1541L63.0967 22.3474L62.9043 22.1541Z" fill="#616161"/>
<path d="M67.521 22.1541L67.7134 22.3474L67.521 22.1541ZM4.4248 22.3474L4.61717 22.5407L4.4248 22.3474ZM21.7378 22.3474L21.9302 22.5407L21.7378 22.3474ZM26.7393 22.3474L26.9317 22.5407L26.7393 22.3474Z" fill="#A1A1A1"/>
<path d="M63.0967 22.3474L63.289 22.5408L63.0967 22.3474Z" fill="#616161"/>
<path d="M67.7131 22.3474L67.9054 22.5408L67.7131 22.3474ZM0.577148 22.5408L0.769515 22.7341L0.577148 22.5408ZM21.9298 22.5408L22.1222 22.7341L21.9298 22.5408ZM26.9314 22.5408L27.1237 22.7341L26.9314 22.5408Z" fill="#A1A1A1"/>
<path d="M63.2886 22.5408L63.481 22.7341L63.2886 22.5408ZM67.9054 22.5408L68.0978 22.7341L67.9054 22.5408ZM0.577148 22.7341L0.769515 22.9275L0.577148 22.7341Z" fill="#616161"/>
<path d="M22.1221 22.7341L22.3144 22.9275L22.1221 22.7341Z" fill="#A1A1A1"/>
<path d="M63.4814 22.7341L63.6738 22.9275L63.4814 22.7341ZM68.0982 22.7341L68.2906 22.9275L68.0982 22.7341Z" fill="#616161"/>
<path d="M4.61719 22.9275L4.80955 23.1208L4.61719 22.9275ZM22.3149 22.9275L22.5073 23.1208L22.3149 22.9275Z" fill="#A1A1A1"/>
<path d="M68.29 22.9275L68.4824 23.1208L68.29 22.9275Z" fill="#616161"/>
<path d="M0.384766 23.1206L0.577132 23.3139L0.384766 23.1206Z" fill="#A1A1A1"/>
<path d="M2.88574 23.1206V23.7006H3.07811L2.88574 23.1206ZM4.61704 23.1206L4.80941 23.3139L4.61704 23.1206Z" fill="#616161"/>
<path d="M22.5068 23.1206L22.6992 23.3139L22.5068 23.1206ZM27.5084 23.1206L27.7007 23.3139L27.5084 23.1206Z" fill="#A1A1A1"/>
<path d="M0.384766 23.314L0.577132 23.5073L0.384766 23.314ZM2.11606 23.314L2.30843 23.5073L2.11606 23.314Z" fill="#616161"/>
<path d="M2.88574 23.314L3.07811 23.5073L2.88574 23.314Z" fill="#A1A1A1"/>
<path d="M22.6992 23.314L22.8916 23.5073L22.6992 23.314Z" fill="#616161"/>
<path d="M27.7012 23.314L27.8935 23.5073L27.7012 23.314Z" fill="#A1A1A1"/>
<path d="M64.0582 23.314L64.2506 23.5073L64.0582 23.314ZM1.73145 23.5073L1.92381 23.7006L1.73145 23.5073Z" fill="#616161"/>
<path d="M3.07812 23.5073L3.27049 23.7007L3.07812 23.5073Z" fill="white"/>
<path d="M3.27051 23.5073L3.46287 23.7007L3.27051 23.5073Z" fill="#A1A1A1"/>
<path d="M4.80957 23.5073L5.00194 23.7007L4.80957 23.5073ZM14.4279 23.5073V24.0873H14.6203L14.4279 23.5073ZM22.892 23.5073L23.0844 23.7007L22.892 23.5073ZM68.8676 23.5073L69.06 23.7007L68.8676 23.5073Z" fill="#616161"/>
<path d="M69.0596 23.5073L69.252 23.7007L69.0596 23.5073ZM0.192383 23.7007L0.384749 23.894L0.192383 23.7007ZM1.53895 23.7007L1.73132 23.894L1.53895 23.7007ZM3.07788 23.7007L3.27025 23.894L3.07788 23.7007Z" fill="#A1A1A1"/>
<path d="M23.084 23.7007L23.2764 23.894L23.084 23.7007ZM0.192383 23.894L0.384749 24.0874L0.192383 23.894ZM1.15422 23.894L1.34658 24.0874L1.15422 23.894Z" fill="#616161"/>
<path d="M1.34668 23.894L1.53905 24.0874L1.34668 23.894Z" fill="#A1A1A1"/>
<path d="M2.30859 23.894L2.50096 24.0874L2.30859 23.894ZM3.07806 23.894L3.27043 24.0874L3.07806 23.894Z" fill="#616161"/>
<path d="M3.84766 23.894L4.04002 24.0874L3.84766 23.894Z" fill="#A1A1A1"/>
<path d="M23.2764 23.894L23.4687 24.0874L23.2764 23.894Z" fill="#616161"/>
<path d="M28.2783 23.894L28.4707 24.0874L28.2783 23.894ZM69.4448 23.894L69.6371 24.0874L69.4448 23.894Z" fill="#A1A1A1"/>
<path d="M0.961914 24.0874L1.15428 24.2807L0.961914 24.0874Z" fill="#616161"/>
<path d="M2.30859 24.0874L2.50096 24.2807L2.30859 24.0874ZM3.27043 24.0874L3.46279 24.2807L3.27043 24.0874ZM5.00173 24.0874L5.19409 24.2807L5.00173 24.0874Z" fill="#A1A1A1"/>
<path d="M23.4688 24.0874L23.6611 24.2807L23.4688 24.0874Z" fill="#616161"/>
<path d="M69.6367 24.0874L69.8291 24.2807L69.6367 24.0874ZM0 24.2807L0.192367 24.4741L0 24.2807ZM0.769466 24.2807L0.961833 24.4741L0.769466 24.2807Z" fill="#A1A1A1"/>
<path d="M4.4248 24.2808L4.61717 24.4741L4.4248 24.2808ZM5.06596 24.4097L5.13021 24.5385L5.06596 24.4097ZM23.6615 24.2808L23.8538 24.4741L23.6615 24.2808Z" fill="#616161"/>
<path d="M69.8291 24.2808L70.0215 24.4741L69.8291 24.2808Z" fill="#A1A1A1"/>
<path d="M0.384766 24.4741L0.577132 24.6675L0.384766 24.4741ZM2.5008 24.4741L2.69316 24.6675L2.5008 24.4741ZM3.46263 24.4741L3.655 24.6675L3.46263 24.4741Z" fill="#616161"/>
<path d="M4.61719 24.4741L4.80955 24.6675L4.61719 24.4741ZM14.2355 24.4741L14.4279 24.6675L14.2355 24.4741Z" fill="#A1A1A1"/>
<path d="M18.082 24.4741L18.2744 24.6675L18.082 24.4741Z" fill="#616161"/>
<path d="M65.0201 24.4741L65.2125 24.6675L65.0201 24.4741ZM70.0216 24.4741L70.214 24.6675L70.0216 24.4741ZM2.50098 24.6675L2.69334 24.8608L2.50098 24.6675Z" fill="#A1A1A1"/>
<path d="M14.2354 24.6675L14.4277 24.8608L14.2354 24.6675Z" fill="#616161"/>
<path d="M18.1465 24.7964L18.2107 24.9252L18.1465 24.7964ZM65.2122 24.6675L65.4046 24.8608L65.2122 24.6675Z" fill="#A1A1A1"/>
<path d="M70.2139 24.6675L70.4062 24.8608L70.2139 24.6675Z" fill="#616161"/>
<path d="M29.2393 24.8608L29.4316 25.0542L29.2393 24.8608ZM65.4042 24.8608L65.5965 25.0542L65.4042 24.8608Z" fill="#A1A1A1"/>
<path d="M70.4062 24.8608L70.5986 25.0542L70.4062 24.8608Z" fill="#616161"/>
<path d="M2.69336 25.0542L2.88573 25.2475L2.69336 25.0542ZM3.84756 25.0542L4.03993 25.2475L3.84756 25.0542ZM14.043 25.0542L14.2354 25.2475L14.043 25.0542ZM24.2384 25.0542L24.4308 25.2475L24.2384 25.0542ZM65.5972 25.0542L65.7896 25.2475L65.5972 25.0542Z" fill="#A1A1A1"/>
<path d="M70.5986 25.0542L70.791 25.2475L70.5986 25.0542Z" fill="#616161"/>
<path d="M4.04004 25.2476L4.23241 25.4409L4.04004 25.2476Z" fill="#A1A1A1"/>
<path d="M14.043 25.2476L14.2353 25.4409L14.043 25.2476Z" fill="#616161"/>
<path d="M65.7891 25.2476L65.9814 25.4409L65.7891 25.2476Z" fill="#A1A1A1"/>
<path d="M70.791 25.2476L70.9834 25.4409L70.791 25.2476Z" fill="#616161"/>
<path d="M2.88574 25.4407L3.07811 25.634L2.88574 25.4407Z" fill="#A1A1A1"/>
<path d="M17.8896 25.4407L18.082 25.634L17.8896 25.4407Z" fill="#616161"/>
<path d="M24.623 25.4407L24.8154 25.634L24.623 25.4407Z" fill="#A1A1A1"/>
<path d="M65.9819 25.4407L66.1743 25.634L65.9819 25.4407ZM13.8506 25.634L14.043 25.8274L13.8506 25.634Z" fill="#616161"/>
<path d="M17.8896 25.634L18.082 25.8274L17.8896 25.634Z" fill="#A1A1A1"/>
<path d="M66.1738 25.634L66.3662 25.8274L66.1738 25.634Z" fill="#616161"/>
<path d="M71.3682 25.634L71.5605 25.8274L71.3682 25.634Z" fill="#A1A1A1"/>
<path d="M3.07812 25.8274L3.27049 26.0207L3.07812 25.8274ZM4.42469 25.8274L4.61706 26.0207L4.42469 25.8274Z" fill="#616161"/>
<path d="M25.0078 25.8274L25.2002 26.0207L25.0078 25.8274ZM30.2017 25.8274L30.3941 26.0207L30.2017 25.8274Z" fill="#A1A1A1"/>
<path d="M66.3666 25.8274L66.559 26.0207L66.3666 25.8274ZM13.6582 26.0207L13.8506 26.2141L13.6582 26.0207ZM17.6979 26.0207L17.8903 26.2141L17.6979 26.0207Z" fill="#616161"/>
<path d="M25.2002 26.0208L25.3926 26.2141L25.2002 26.0208ZM30.3941 26.0208L30.5865 26.2141L30.3941 26.0208Z" fill="#A1A1A1"/>
<path d="M66.5586 26.0208L66.751 26.2141L66.5586 26.0208Z" fill="#616161"/>
<path d="M71.753 26.0208V26.6008H71.9454L71.753 26.0208ZM3.27051 26.2141L3.46287 26.4074L3.27051 26.2141ZM5.00181 26.2141L5.19417 26.4074L5.00181 26.2141ZM13.4659 26.2141L13.6583 26.4074L13.4659 26.2141ZM17.698 26.2141L17.8904 26.4074L17.698 26.2141ZM25.3927 26.2141L25.585 26.4074L25.3927 26.2141ZM30.5866 26.2141L30.7789 26.4074L30.5866 26.2141Z" fill="#A1A1A1"/>
<path d="M66.7515 26.2141L66.9439 26.4075L66.7515 26.2141ZM3.46289 26.4075L3.65526 26.6008L3.46289 26.4075Z" fill="#616161"/>
<path d="M5.19434 26.4075L5.3867 26.6008L5.19434 26.4075ZM25.5852 26.4075L25.7776 26.6008L25.5852 26.4075Z" fill="#A1A1A1"/>
<path d="M66.944 26.4075L67.1364 26.6008L66.944 26.4075ZM5.38672 26.6008L5.57909 26.7941L5.38672 26.6008ZM13.2737 26.6008L13.4661 26.7941L13.2737 26.6008Z" fill="#616161"/>
<path d="M17.5049 26.6008L17.6972 26.7942L17.5049 26.6008Z" fill="#A1A1A1"/>
<path d="M25.7773 26.6008L25.9697 26.7942L25.7773 26.6008ZM57.7102 26.6008L57.9026 26.7942L57.7102 26.6008ZM67.1362 26.6008L67.3285 26.7942L67.1362 26.6008Z" fill="#616161"/>
<path d="M3.65527 26.7942L3.84764 26.9875L3.65527 26.7942ZM5.77131 26.7942L5.96367 26.9875L5.77131 26.7942Z" fill="#A1A1A1"/>
<path d="M25.9697 26.7942L26.1621 26.9875L25.9697 26.7942ZM39.8842 26.9231L39.9484 27.0519L39.8842 26.9231Z" fill="#616161"/>
<path d="M57.7734 26.9231L57.8377 27.0519L57.7734 26.9231ZM61.3643 26.7942L61.5567 26.9875L61.3643 26.7942Z" fill="#A1A1A1"/>
<path d="M67.3286 26.7942L67.521 26.9875L67.3286 26.7942ZM3.84766 26.9875L4.04002 27.1809L3.84766 26.9875ZM5.96369 26.9875L6.15605 27.1809L5.96369 26.9875Z" fill="#616161"/>
<path d="M6.15527 26.9875L6.34764 27.1809L6.15527 26.9875Z" fill="#A1A1A1"/>
<path d="M17.3125 26.9875L17.5049 27.1809L17.3125 26.9875ZM26.1614 26.9875L26.3537 27.1809L26.1614 26.9875ZM30.3934 26.9875L30.5858 27.1809L30.3934 26.9875ZM61.3644 26.9875L61.5568 27.1809L61.3644 26.9875Z" fill="#616161"/>
<path d="M71.5605 26.9875L71.7529 27.1809L71.5605 26.9875Z" fill="#A1A1A1"/>
<path d="M4.04004 27.1809L4.23241 27.3742L4.04004 27.1809ZM6.34844 27.1809L6.5408 27.3742L6.34844 27.1809Z" fill="#616161"/>
<path d="M6.54004 27.1809L6.73241 27.3742L6.54004 27.1809ZM12.5034 27.1809L12.6958 27.3742L12.5034 27.1809Z" fill="#A1A1A1"/>
<path d="M26.3545 27.1809L26.5469 27.3742L26.3545 27.1809ZM32.7026 27.1809L32.895 27.3742L32.7026 27.1809Z" fill="#616161"/>
<path d="M39.8203 27.1809L40.0127 27.3742L39.8203 27.1809ZM61.4294 27.3099L61.4937 27.4386L61.4294 27.3099ZM67.5211 27.1809L67.7135 27.3742L67.5211 27.1809Z" fill="#A1A1A1"/>
<path d="M4.23242 27.3743L4.42479 27.5676L4.23242 27.3743Z" fill="#616161"/>
<path d="M6.9248 27.3743L7.11717 27.5676L6.9248 27.3743ZM12.1187 27.3743L12.3111 27.5676L12.1187 27.3743Z" fill="#A1A1A1"/>
<path d="M12.3115 27.3743L12.5039 27.5676L12.3115 27.3743ZM17.1207 27.3743L17.3131 27.5676L17.1207 27.3743Z" fill="#616161"/>
<path d="M26.5469 27.3743L26.7392 27.5676L26.5469 27.3743Z" fill="#A1A1A1"/>
<path d="M30.2012 27.3743L30.3935 27.5676L30.2012 27.3743Z" fill="#616161"/>
<path d="M32.7021 27.3743L32.8945 27.5676L32.7021 27.3743ZM50.7846 27.3743L50.977 27.5676L50.7846 27.3743Z" fill="#A1A1A1"/>
<path d="M57.9023 27.3743L58.0947 27.5676L57.9023 27.3743ZM71.368 27.3743L71.5604 27.5676L71.368 27.3743Z" fill="#616161"/>
<path d="M7.63086 27.632L7.75898 27.6966L7.63086 27.632ZM11.5423 27.5676L11.7346 27.761L11.5423 27.5676Z" fill="#A1A1A1"/>
<path d="M11.7344 27.5676L11.9267 27.761L11.7344 27.5676Z" fill="#616161"/>
<path d="M26.7393 27.5676L26.9316 27.761L26.7393 27.5676Z" fill="#A1A1A1"/>
<path d="M40.0126 27.5676L40.205 27.761L40.0126 27.5676ZM61.3653 27.5676L61.173 28.1476L61.3653 27.5676ZM68.0981 27.5676L68.2905 27.761L68.0981 27.5676ZM71.176 27.5676L71.3684 27.761L71.176 27.5676ZM4.61719 27.761L4.80955 27.9543L4.61719 27.761ZM8.27215 27.761V27.9543H8.84925L8.27215 27.761Z" fill="#616161"/>
<path d="M8.84863 27.761V27.9543H10.5799L8.84863 27.761Z" fill="#A1A1A1"/>
<path d="M10.709 27.8252L10.8371 27.8898L10.709 27.8252Z" fill="#616161"/>
<path d="M16.9287 27.761L17.1211 27.9543L16.9287 27.761ZM32.8951 27.761L33.0875 27.9543L32.8951 27.761Z" fill="#A1A1A1"/>
<path d="M40.2051 27.761L40.3974 27.9543L40.2051 27.761Z" fill="#616161"/>
<path d="M58.0947 27.761L58.2871 27.9543L58.0947 27.761Z" fill="#A1A1A1"/>
<path d="M68.2905 27.761L68.4829 27.9543L68.2905 27.761ZM4.80957 27.9543L5.00194 28.1477L4.80957 27.9543Z" fill="#616161"/>
<path d="M16.7363 27.9541L16.9287 28.1474L16.7363 27.9541Z" fill="#A1A1A1"/>
<path d="M27.3164 27.9541L27.5088 28.1474L27.3164 27.9541ZM29.6248 27.9541L29.8172 28.1474L29.6248 27.9541ZM33.2798 27.9541L33.4721 28.1474L33.2798 27.9541ZM36.1653 27.9541L36.3576 28.1474L36.1653 27.9541ZM40.3973 27.9541L40.5897 28.1474L40.3973 27.9541ZM43.2828 27.9541L43.4752 28.1474L43.2828 27.9541ZM51.3622 27.9541L51.5546 28.1474L51.3622 27.9541ZM54.2477 27.9541L54.4401 28.1474L54.2477 27.9541ZM58.4798 27.9541L58.6722 28.1474L58.4798 27.9541Z" fill="#616161"/>
<path d="M61.3652 27.9541L61.5576 28.1474L61.3652 27.9541ZM68.4828 27.9541L68.6752 28.1474L68.4828 27.9541Z" fill="#A1A1A1"/>
<path d="M70.7913 27.9541L70.9837 28.1474L70.7913 27.9541ZM5.00195 28.1474L5.19432 28.3408L5.00195 28.1474ZM16.5439 28.1474L16.7363 28.3408L16.5439 28.1474Z" fill="#616161"/>
<path d="M27.5088 28.1475L27.7012 28.3408L27.5088 28.1475Z" fill="#A1A1A1"/>
<path d="M27.7012 28.1475L27.8935 28.3408L27.7012 28.1475ZM29.2401 28.1475L29.4325 28.3408L29.2401 28.1475Z" fill="#616161"/>
<path d="M29.4316 28.1475L29.624 28.3408L29.4316 28.1475ZM33.6637 28.1475L33.8561 28.3408L33.6637 28.1475Z" fill="#A1A1A1"/>
<path d="M33.8564 28.1475V28.3408H34.4335L33.8564 28.1475ZM35.0106 28.1475V28.3408H35.5877L35.0106 28.1475Z" fill="#616161"/>
<path d="M35.7158 28.2118L35.8439 28.2764L35.7158 28.2118ZM40.7814 28.1475L40.9738 28.3408L40.7814 28.1475Z" fill="#A1A1A1"/>
<path d="M41.1025 28.2118L41.2307 28.2764L41.1025 28.2118ZM42.1284 28.1475V28.3408H42.7055L42.1284 28.1475Z" fill="#616161"/>
<path d="M42.834 28.2118L42.9621 28.2764L42.834 28.2118ZM51.7469 28.1475L51.9393 28.3408L51.7469 28.1475Z" fill="#A1A1A1"/>
<path d="M52.0674 28.2118L52.1955 28.2764L52.0674 28.2118ZM53.0933 28.1475V28.3408H53.6704L53.0933 28.1475Z" fill="#616161"/>
<path d="M53.7988 28.2119L53.9269 28.2765L53.7988 28.2119ZM58.8004 28.2119L58.9285 28.2765L58.8004 28.2119Z" fill="#A1A1A1"/>
<path d="M59.1846 28.2119L59.3127 28.2765L59.1846 28.2119ZM60.3388 28.2119L60.4669 28.2765L60.3388 28.2119Z" fill="#616161"/>
<path d="M60.7236 28.2118L60.8518 28.2764L60.7236 28.2118ZM68.8671 28.1475L69.0595 28.3408L68.8671 28.1475Z" fill="#A1A1A1"/>
<path d="M69.0596 28.1475L69.2519 28.3408L69.0596 28.1475ZM70.4061 28.1475L70.5985 28.3408L70.4061 28.1475Z" fill="#616161"/>
<path d="M70.5986 28.1475L70.791 28.3408L70.5986 28.1475Z" fill="#A1A1A1"/>
<path d="M5.19434 28.3408L5.3867 28.5342L5.19434 28.3408ZM16.3516 28.3408L16.544 28.5342L16.3516 28.3408Z" fill="#616161"/>
<path d="M28.2783 28.3408V28.5342H28.8554L28.2783 28.3408ZM5.38672 28.5342L5.57909 28.7275L5.38672 28.5342Z" fill="#A1A1A1"/>
<path d="M5.77148 28.7275L5.96385 28.9209L5.77148 28.7275Z" fill="#616161"/>
<path d="M5.96289 28.9209L6.15526 29.1142L5.96289 28.9209Z" fill="#A1A1A1"/>
<path d="M6.15527 28.9209L6.34764 29.1142L6.15527 28.9209ZM15.7736 28.9209L15.966 29.1142L15.7736 28.9209Z" fill="#616161"/>
<path d="M6.34766 29.1143L6.54002 29.3076L6.34766 29.1143ZM15.5813 29.1143L15.7736 29.3076L15.5813 29.1143ZM6.73239 29.3076L6.92476 29.5009L6.73239 29.3076Z" fill="#A1A1A1"/>
<path d="M6.9248 29.3076L7.11717 29.501L6.9248 29.3076ZM15.1966 29.3076L15.3889 29.501L15.1966 29.3076Z" fill="#616161"/>
<path d="M15.3889 29.3076L15.5813 29.501L15.3889 29.3076ZM7.11719 29.501L7.30955 29.6943L7.11719 29.501Z" fill="#A1A1A1"/>
<path d="M7.30957 29.501L7.50194 29.6943L7.30957 29.501ZM14.8119 29.501L15.0042 29.6943L14.8119 29.501Z" fill="#616161"/>
<path d="M15.0043 29.501L15.1966 29.6943L15.0043 29.501ZM7.69434 29.6943L7.8867 29.8877L7.69434 29.6943Z" fill="#A1A1A1"/>
<path d="M7.88672 29.6943L8.07909 29.8877L7.88672 29.6943ZM14.4272 29.6943L14.6195 29.8877L14.4272 29.6943Z" fill="#616161"/>
<path d="M14.6196 29.6943L14.8119 29.8877L14.6196 29.6943ZM8.27148 29.8877L8.46385 30.081L8.27148 29.8877Z" fill="#A1A1A1"/>
<path d="M8.59277 29.9521L8.72089 30.0167L8.59277 29.9521ZM13.8507 29.8877L14.0431 30.081L13.8507 29.8877Z" fill="#616161"/>
<path d="M14.0426 29.8877L14.2349 30.081L14.0426 29.8877ZM9.2334 30.081L9.42577 30.2744L9.2334 30.081Z" fill="#A1A1A1"/>
<path d="M9.55469 30.1453L9.68281 30.2098L9.55469 30.1453ZM13.0173 30.1453L13.1454 30.2098L13.0173 30.1453Z" fill="#616161"/>
<path d="M13.2732 30.0811L13.4656 30.2744L13.2732 30.0811ZM10.5801 30.2744V30.4677H11.1572L10.5801 30.2744Z" fill="#A1A1A1"/>
<path d="M11.1572 30.2742L11.3496 30.4675L11.1572 30.2742Z" fill="#616161"/>
<path d="M11.3496 30.2742V30.4675H12.3114L11.3496 30.2742Z" fill="#A1A1A1"/>
</svg>
