<svg width="143" height="31" viewBox="0 0 143 31" fill="none" xmlns="http://www.w3.org/2000/svg">
<path d="M34.4333 0.5C33.2479 2.54128 32.7458 2.71374 30.5859 3.40009C31.5293 5.35475 32.5148 5.61016 31.9325 8.04024L34.5441 7.12884L36.934 8.04024L36.8844 5.53456L38.473 3.40009L36.0132 2.70407L34.4333 0.5Z" fill="#ECB913"/>
<path d="M59.0556 5.14014V5.33348H59.8251L59.0556 5.14014ZM58.0938 5.33348L58.2861 5.52682L58.0938 5.33348Z" fill="white"/>
<path d="M58.2871 5.3335L58.4795 5.52684L58.2871 5.3335Z" fill="#FBFBFB"/>
<path d="M57.9017 5.52672V20.8005C57.9017 22.6336 57.3219 25.6615 58.0445 27.353C58.4521 28.3073 60.7257 28.7845 61.2483 27.7001C62.0563 26.0236 61.3643 22.4735 61.3643 20.6072C63.1905 22.4426 64.9537 24.3423 66.7431 26.2139C67.5928 27.1028 68.4617 28.3203 69.8283 28.3023C70.9805 28.2872 72.2076 26.9864 71.443 25.8602C70.1212 23.9133 66.7381 20.8195 64.6346 19.8338C66.4443 18.099 69.4049 16.4498 70.607 14.227C71.3064 12.9338 70.1349 11.3453 68.6743 11.6929C67.7644 11.9094 66.9972 13.0124 66.3659 13.647C64.7636 15.2573 63.2182 17.1679 61.3643 18.4805V9.39351C61.3643 8.42778 61.6777 6.76719 61.056 5.95748C60.3388 5.02404 58.8841 5.34344 57.9017 5.52672Z" fill="white"/>
<path d="M60.4023 5.3335L60.5947 5.52684L60.4023 5.3335Z" fill="#FBFBFB"/>
<path d="M60.5964 5.3335L60.7888 5.52684L60.5964 5.3335ZM57.7109 5.52684L57.9033 5.72017L57.7109 5.52684Z" fill="white"/>
<path d="M60.7872 5.52686L60.9796 5.72019L60.7872 5.52686ZM57.7734 5.84915L57.8377 5.97792L57.7734 5.84915ZM60.9796 5.72019L61.172 5.91353L60.9796 5.72019ZM61.172 5.91353L61.3643 6.10687L61.172 5.91353Z" fill="#FBFBFB"/>
<path d="M57.7109 6.10693L57.9033 6.30027L57.7109 6.10693Z" fill="white"/>
<path d="M57.7109 6.30029L57.9033 6.49363L57.7109 6.30029Z" fill="#FBFBFB"/>
<path d="M61.3659 6.30029V8.04035H61.5583L61.3659 6.30029ZM57.7109 6.49363V26.6009H57.9033V12.6805L57.7109 6.49363Z" fill="white"/>
<path d="M79.0637 6.58324C77.8941 6.79089 76.5843 7.11666 75.6011 7.80824C72.6735 9.86769 72.4497 14.6412 75.4089 16.7813C77.467 18.2698 80.0957 18.4303 82.3339 19.5105C83.6014 20.1222 84.6252 21.2337 84.408 22.734C83.9229 26.0885 79.2103 25.8068 76.9476 24.7933C76.1449 24.4337 74.9911 23.1588 74.0735 23.6719C72.3712 24.6238 73.6268 26.8212 74.8316 27.4869C77.0104 28.6908 80.3056 28.8817 82.7186 28.4445C83.9057 28.2293 85.2202 27.7429 86.1641 26.979C88.738 24.8958 89.162 20.5074 86.7479 18.1119C85.2367 16.6123 83.1401 16.0704 81.1797 15.4531C79.6619 14.9751 77.1171 14.3653 77.1966 12.2937C77.3237 8.98239 82.2452 9.45646 84.2576 10.2113C84.9824 10.4833 86.1295 11.3974 86.8749 10.8201C88.1007 9.87078 87.1665 8.29372 86.1803 7.64777C84.3324 6.43727 81.1914 6.20526 79.0637 6.58324Z" fill="#ECB913"/>
<path d="M15.7109 6.75122L15.8391 6.81579L15.7109 6.75122Z" fill="white"/>
<path d="M15.9668 6.68677L16.1592 6.88011L15.9668 6.68677Z" fill="#FBFBFB"/>
<path d="M16.159 6.68677V6.88011H17.1209L16.159 6.68677ZM27.3163 6.68677L27.5087 6.88011L27.3163 6.68677ZM14.6201 6.88011L14.4277 12.487V23.5073H14.6201C14.6201 18.1851 15.433 12.1157 14.6201 6.88011Z" fill="white"/>
<path d="M14.8125 6.88013L15.0049 7.07347L14.8125 6.88013Z" fill="#FBFBFB"/>
<path d="M2.88454 23.1208L5.00057 24.6676C4.87822 22.2684 3.65766 19.3165 2.69217 17.1273C1.4012 18.8618 0.506118 22.5255 0.191406 24.6676L2.30744 23.3142C3.13808 28.9666 11.5272 32.8978 16.1022 28.8187C18.8902 26.3328 18.2739 22.0169 18.2739 18.674C20.6486 21.0608 22.8322 23.6305 25.1993 26.0209C26.1336 26.9646 27.1906 28.3746 28.6617 28.3124C29.9444 28.2581 30.9941 26.9961 30.1386 25.8276C28.1173 23.0663 24.697 19.5151 21.9288 17.514V17.3207C24.3594 15.5999 27.4269 12.636 29.1131 10.1671C30.0313 8.82299 29.4304 6.70167 27.5075 6.97544C26.3642 7.13804 25.5211 8.61264 24.797 9.39373C22.6377 11.7237 20.4738 14.0613 18.2739 16.354C18.2739 13.9598 19.0628 9.87592 18.1019 7.67939C17.6889 6.73512 15.0284 6.36256 14.6801 7.50442C14.3592 8.55638 14.6189 10.0377 14.6189 11.1338V20.2207C14.6189 22.0387 14.8161 23.9566 13.9691 25.6335C11.502 30.5178 4.18147 27.2113 2.88454 23.1208Z" fill="white"/>
<path d="M17.3125 6.88013L17.5049 7.07347L17.3125 6.88013Z" fill="#FBFBFB"/>
<path d="M17.5059 6.88013L17.6982 7.07347L17.5059 6.88013ZM26.9318 6.88013L27.1242 7.07347L26.9318 6.88013Z" fill="white"/>
<path d="M28.0215 6.94458L28.1496 7.00915L28.0215 6.94458Z" fill="#FBFBFB"/>
<path d="M28.2772 6.88013L28.4696 7.07347L28.2772 6.88013ZM26.7383 7.07347L26.9306 7.26681L26.7383 7.07347ZM28.6619 7.07347L28.8543 7.26681L28.6619 7.07347Z" fill="white"/>
<path d="M90.7971 7.26678V20.0272C90.7971 21.9704 90.4112 24.4141 91.2913 26.2139C92.4355 28.5538 95.2966 28.6364 97.53 28.5264C98.7361 28.467 100.234 27.8487 100.191 26.4076C100.125 24.1896 96.0647 26.4534 94.8095 24.4655C94.2897 23.6424 94.4521 22.5021 94.4521 21.5739V15.1937C95.8469 15.1937 98.1813 15.6407 99.428 14.9389C100.286 14.4559 100.531 12.8932 99.6096 12.3387C98.3315 11.5695 96.2099 12.9747 94.898 12.0948C93.8475 11.3903 94.7412 9.10176 94.3094 8.05077C93.7346 6.65234 91.9313 7.17688 90.7971 7.26678Z" fill="#ECB913"/>
<path d="M26.5462 7.26685L26.7385 7.46019L26.5462 7.26685ZM18.082 7.46019L18.2744 7.65352L18.082 7.46019Z" fill="white"/>
<path d="M18.082 7.65356L18.2744 7.8469L18.082 7.65356Z" fill="#FBFBFB"/>
<path d="M25.9688 7.84692L26.1611 8.04026L25.9688 7.84692Z" fill="white"/>
<path d="M29.4316 7.84692L29.624 8.04026L29.4316 7.84692Z" fill="#FBFBFB"/>
<path d="M18.2754 8.04028V16.1605H18.4678C18.4678 13.8488 19.1624 10.1647 18.2754 8.04028ZM25.7777 8.04028L25.9701 8.23362L25.7777 8.04028Z" fill="white"/>
<path d="M61.3652 8.04028V17.7073H61.5576C61.5576 14.991 62.4057 10.5322 61.3652 8.04028Z" fill="#FBFBFB"/>
<path d="M29.625 8.23364V9.007H29.8174L29.625 8.23364Z" fill="white"/>
<path d="M25.2001 8.81348L25.3925 9.00682L25.2001 8.81348ZM25.0078 9.00682L25.2001 9.20016L25.0078 9.00682ZM24.8154 9.20016L25.0078 9.3935L24.8154 9.20016ZM24.623 9.3935L24.8154 9.58683L24.623 9.3935ZM29.4322 9.3935L29.6246 9.58683L29.4322 9.3935Z" fill="#FBFBFB"/>
<path d="M24.4306 9.58691L24.623 9.78025L24.4306 9.58691ZM24.2383 9.78025L24.4306 9.97359L24.2383 9.78025Z" fill="white"/>
<path d="M29.2402 9.78027L29.4326 9.97361L29.2402 9.78027Z" fill="#FBFBFB"/>
<path d="M24.0458 9.97363L24.2382 10.167L24.0458 9.97363ZM23.8535 10.167L24.0458 10.3603L23.8535 10.167ZM23.6611 10.3603L23.8535 10.5537L23.6611 10.3603ZM28.855 10.3603L29.0473 10.5537L28.855 10.3603ZM23.4687 10.5537L23.6611 10.747L23.4687 10.5537ZM28.6626 10.5537L28.855 10.747L28.6626 10.5537ZM28.4702 10.747L28.6626 10.9403L28.4702 10.747ZM23.084 10.9403L23.2764 11.1337L23.084 10.9403ZM28.2779 10.9403L28.4702 11.1337L28.2779 10.9403ZM28.0855 11.1337L28.2779 11.327L28.0855 11.1337ZM27.8931 11.327L28.0855 11.5203L27.8931 11.327ZM45.2061 11.327V11.5203H45.7832L45.2061 11.327Z" fill="white"/>
<path d="M45.7832 11.3269V11.5202H48.6687L45.7832 11.3269Z" fill="#FBFBFB"/>
<path d="M48.7969 11.3914L48.925 11.4559L48.7969 11.3914Z" fill="white"/>
<path d="M112.15 17.7072C109.161 18.6597 104.911 17.6159 102.607 20.2542C100.794 22.3299 101.346 26.0932 103.686 27.4992C106.532 29.2091 112.357 29.2281 114.933 26.9178C116.161 25.8172 115.613 23.0795 115.613 21.5739C115.613 17.6956 116.339 13.1822 111.765 11.749C111.03 11.5184 110.226 11.3971 109.457 11.3443C107.615 11.2173 105.335 11.4006 103.694 12.3198C102.763 12.8416 102.165 13.9974 102.896 14.9687C103.637 15.9528 105.43 14.7626 106.379 14.549C109.371 13.8754 111.396 14.6371 112.15 17.7072ZM122.538 28.1475V19.0605C122.538 18.0811 122.194 16.2683 122.846 15.4633C124.042 13.9881 127.266 14.3113 128.886 14.6137C131.19 9.80111 122.491 11.4402 120.425 12.6716C117.589 14.3618 118.883 21.1702 118.883 24.0874C118.883 25.107 118.556 26.8527 119.218 27.7069C119.989 28.7016 121.496 28.2302 122.538 28.1475ZM135.426 11.4097C134.427 11.5539 133.432 11.7794 132.541 12.2753C129.922 13.7329 129.341 17.5993 131.774 19.5383C133.322 20.7712 135.517 20.9815 137.35 21.5795C138.352 21.9065 139.538 22.6336 139.232 23.8938C138.586 26.5511 134.604 25.6323 132.926 24.8874C132.305 24.6117 131.361 23.8967 130.698 24.4058C129.368 25.4278 130.519 27.1098 131.579 27.7173C133.442 28.7845 136.437 28.8184 138.504 28.4445C139.46 28.2716 140.4 27.929 141.195 27.3635C143.35 25.8303 143.64 22.1833 141.717 20.3402C140.434 19.1114 138.635 18.6849 136.965 18.2626C135.923 17.9989 133.922 17.5919 133.96 16.1604C134.031 13.4956 138.426 14.326 139.851 14.9184C140.379 15.1381 141.161 15.6007 141.716 15.2345C142.857 14.4834 142.035 12.8522 141.189 12.2927C139.668 11.2869 137.176 11.1572 135.426 11.4097Z" fill="#ECB913"/>
<path d="M27.7012 11.5203L27.8935 11.7136L27.7012 11.5203ZM33.8569 11.5203V11.7136H34.8187L33.8569 11.5203ZM44.373 11.5846L44.5011 11.6492L44.373 11.5846Z" fill="white"/>
<path d="M44.6289 11.5203L44.8213 11.7136L44.6289 11.5203Z" fill="#FBFBFB"/>
<path d="M44.8219 11.61C43.2497 11.8892 41.0227 12.5278 40.1961 14.0345C39.7871 14.7798 40.0091 15.7343 40.0126 16.5471C40.0212 18.4805 40.0128 20.4139 40.0128 22.3473C40.0128 24.0551 39.1352 28.0398 41.5517 28.2647C44.0596 28.4978 43.4754 26.0293 43.4754 24.2807C43.4754 21.9367 42.663 17.7654 43.5914 15.6216C44.2029 14.2097 47.2577 14.0656 48.4769 14.4639C52.0178 15.6199 50.7853 21.5672 50.7853 24.4741C50.7853 26.2128 50.4921 28.3921 52.9013 28.268C55.5004 28.1342 54.4403 22.3897 54.4403 20.4139C54.4403 18.5679 54.6301 16.5464 53.8862 14.8071C52.4281 11.3985 48.0266 11.0406 44.8219 11.61Z" fill="white"/>
<path d="M49.6309 11.5203L49.8232 11.7136L49.6309 11.5203Z" fill="#FBFBFB"/>
<path d="M49.8223 11.5203L50.0146 11.7136L49.8223 11.5203ZM68.2895 11.5203L68.4818 11.7136L68.2895 11.5203Z" fill="white"/>
<path d="M68.9961 11.5847L69.1242 11.6493L68.9961 11.5847Z" fill="#FBFBFB"/>
<path d="M69.2514 11.5203L69.4437 11.7136L69.2514 11.5203ZM27.5078 11.7136L27.7002 11.9069L27.5078 11.7136ZM33.0864 11.7136L33.2788 11.9069L33.0864 11.7136Z" fill="white"/>
<path d="M33.2793 11.7136L33.4717 11.907L33.2793 11.7136Z" fill="#FBFBFB"/>
<path d="M32.7028 11.9069V18.4804V22.9272C32.7028 24.2004 32.2894 26.3948 32.9564 27.5233C33.4355 28.334 35.5404 28.6392 36.16 27.8382C36.7206 27.1136 36.3578 25.1615 36.3578 24.2806V15.7737C36.3578 14.7708 36.6383 13.2017 36.0004 12.3475C35.2646 11.362 33.7181 11.7779 32.7028 11.9069Z" fill="white"/>
<path d="M35.2031 11.7136L35.3955 11.907L35.2031 11.7136Z" fill="#FBFBFB"/>
<path d="M35.3945 11.7136L35.5869 11.907L35.3945 11.7136ZM43.6663 11.7136L43.8587 11.907L43.6663 11.7136Z" fill="white"/>
<path d="M43.8594 11.7136L44.0517 11.907L43.8594 11.7136ZM50.3998 11.7136L50.5922 11.907L50.3998 11.7136Z" fill="#FBFBFB"/>
<path d="M68.0977 11.7136L68.29 11.907L68.0977 11.7136Z" fill="white"/>
<path d="M69.829 11.7136L70.0214 11.907L69.829 11.7136ZM22.3145 11.907L22.5068 12.1003L22.3145 11.907Z" fill="#FBFBFB"/>
<path d="M27.3164 11.907L27.5088 12.1003L27.3164 11.907ZM35.7805 11.907L35.9729 12.1003L35.7805 11.907ZM43.0905 11.907L43.2828 12.1003L43.0905 11.907ZM50.9775 11.907L51.1699 12.1003L50.9775 11.907ZM67.9058 11.907L68.0981 12.1003L67.9058 11.907ZM70.2142 11.907L70.4065 12.1003L70.2142 11.907Z" fill="white"/>
<path d="M22.123 12.1003L22.3154 12.2937L22.123 12.1003Z" fill="#FBFBFB"/>
<path d="M27.123 12.1003L27.3154 12.2937L27.123 12.1003ZM35.9719 12.1003L36.1643 12.2937L35.9719 12.1003ZM42.5124 12.1003L42.7047 12.2937L42.5124 12.1003Z" fill="white"/>
<path d="M42.7051 12.1003L42.8974 12.2937L42.7051 12.1003Z" fill="#FBFBFB"/>
<path d="M51.3613 12.1003L51.5537 12.2937L51.3613 12.1003ZM67.7125 12.1003L67.9049 12.2937L67.7125 12.1003ZM70.4056 12.1003L70.598 12.2937L70.4056 12.1003Z" fill="white"/>
<path d="M21.9297 12.2937L22.1221 12.487L21.9297 12.2937Z" fill="#FBFBFB"/>
<path d="M26.9316 12.2937L27.124 12.487L26.9316 12.2937Z" fill="white"/>
<path d="M42.1289 12.2937L42.3213 12.487L42.1289 12.2937Z" fill="#FBFBFB"/>
<path d="M51.7461 12.2937L51.9385 12.487L51.7461 12.2937ZM67.5201 12.2937L67.7125 12.487L67.5201 12.2937ZM70.598 12.2937L70.7904 12.487L70.598 12.2937Z" fill="white"/>
<path d="M21.7383 12.4871L21.9306 12.6804L21.7383 12.4871Z" fill="#FBFBFB"/>
<path d="M26.7383 12.4871L26.9306 12.6804L26.7383 12.4871ZM36.1642 12.4871L36.3566 12.6804L36.1642 12.4871Z" fill="white"/>
<path d="M41.7441 12.4871L41.9365 12.6804L41.7441 12.4871Z" fill="#FBFBFB"/>
<path d="M52.1309 12.4871L52.3232 12.6804L52.1309 12.4871ZM67.3278 12.4871L67.5202 12.6804L67.3278 12.4871Z" fill="white"/>
<path d="M21.5449 12.6804L21.7373 12.8738L21.5449 12.6804Z" fill="#FBFBFB"/>
<path d="M26.5469 12.6804L26.7392 12.8738L26.5469 12.6804Z" fill="white"/>
<path d="M36.1641 12.6804L36.3564 12.8738L36.1641 12.6804ZM41.358 12.6804L41.5503 12.8738L41.358 12.6804Z" fill="#FBFBFB"/>
<path d="M52.3245 12.6804L52.5169 12.8738L52.3245 12.6804ZM67.1368 12.6804L67.3291 12.8738L67.1368 12.6804ZM70.7917 12.6804L70.9841 12.8738L70.7917 12.6804ZM21.3535 12.8738L21.5459 13.0671L21.3535 12.8738ZM26.355 12.8738L26.5474 13.0671L26.355 12.8738ZM40.9749 12.8738L41.1673 13.0671L40.9749 12.8738Z" fill="white"/>
<path d="M52.5156 12.8738L52.708 13.0671L52.5156 12.8738Z" fill="#FBFBFB"/>
<path d="M66.9434 12.8738L67.1357 13.0671L66.9434 12.8738Z" fill="white"/>
<path d="M70.8555 13.0027L70.9197 13.1315L70.8555 13.0027Z" fill="#FBFBFB"/>
<path d="M21.1602 13.0671L21.3525 13.2605L21.1602 13.0671ZM26.1617 13.0671L26.3541 13.2605L26.1617 13.0671Z" fill="white"/>
<path d="M40.7812 13.0671L40.9736 13.2605L40.7812 13.0671ZM52.708 13.0671L52.9003 13.2605L52.708 13.0671Z" fill="#FBFBFB"/>
<path d="M66.752 13.0671L66.9444 13.2605L66.752 13.0671ZM20.9688 13.2605L21.1611 13.4538L20.9688 13.2605ZM25.9703 13.2605L26.1626 13.4538L25.9703 13.2605ZM40.3978 13.2605L40.5901 13.4538L40.3978 13.2605Z" fill="white"/>
<path d="M40.5898 13.2605L40.7822 13.4538L40.5898 13.2605ZM52.9013 13.2605L53.0937 13.4538L52.9013 13.2605Z" fill="#FBFBFB"/>
<path d="M66.5586 13.2605L66.751 13.4538L66.5586 13.2605ZM20.7754 13.4538L20.9678 13.6472L20.7754 13.4538ZM25.7769 13.4538L25.9693 13.6472L25.7769 13.4538Z" fill="white"/>
<path d="M40.3965 13.4539L40.5889 13.6472L40.3965 13.4539ZM53.0927 13.4539L53.285 13.6472L53.0927 13.4539Z" fill="#FBFBFB"/>
<path d="M66.3672 13.4539L66.5596 13.6472L66.3672 13.4539Z" fill="white"/>
<path d="M70.8555 13.5828L70.9197 13.7115L70.8555 13.5828Z" fill="#FBFBFB"/>
<path d="M20.584 13.647L20.7764 13.8403L20.584 13.647ZM25.5855 13.647L25.7779 13.8403L25.5855 13.647Z" fill="white"/>
<path d="M40.2051 13.647L40.3974 13.8403L40.2051 13.647ZM53.286 13.647L53.4784 13.8403L53.286 13.647Z" fill="#FBFBFB"/>
<path d="M66.1748 13.647L66.3672 13.8403L66.1748 13.647ZM20.3916 13.8403L20.584 14.0337L20.3916 13.8403ZM25.3931 13.8403L25.5855 14.0337L25.3931 13.8403ZM40.013 13.8403L40.2053 14.0337L40.013 13.8403ZM53.4786 13.8403L53.671 14.0337L53.4786 13.8403ZM65.9825 13.8403L66.1748 14.0337L65.9825 13.8403ZM70.7916 13.8403L70.984 14.0337L70.7916 13.8403ZM20.1992 14.0337L20.3916 14.227L20.1992 14.0337ZM25.2007 14.0337L25.3931 14.227L25.2007 14.0337Z" fill="white"/>
<path d="M53.4785 14.0337L53.6709 14.227L53.4785 14.0337Z" fill="#FBFBFB"/>
<path d="M65.7891 14.0337L65.9815 14.227L65.7891 14.0337ZM20.0059 14.227L20.1982 14.4204L20.0059 14.227ZM25.0074 14.227L25.1998 14.4204L25.0074 14.227ZM39.8837 14.356L39.9479 14.4848L39.8837 14.356Z" fill="white"/>
<path d="M46.3594 14.2271V14.4204H48.0907L46.3594 14.2271Z" fill="#FBFBFB"/>
<path d="M53.6694 14.2271L53.8618 14.4204L53.6694 14.2271ZM65.5962 14.2271L65.7885 14.4204L65.5962 14.2271ZM70.5977 14.2271L70.7901 14.4204L70.5977 14.2271ZM24.8145 14.4204L25.0068 14.6137L24.8145 14.4204Z" fill="white"/>
<path d="M45.3984 14.4204L45.5908 14.6137L45.3984 14.4204Z" fill="#FBFBFB"/>
<path d="M45.5918 14.4204L45.7842 14.6137L45.5918 14.4204ZM48.4773 14.4204L48.6697 14.6137L48.4773 14.4204Z" fill="white"/>
<path d="M48.668 14.4204L48.8603 14.6137L48.668 14.4204ZM53.6695 14.4204L53.8619 14.6137L53.6695 14.4204Z" fill="#FBFBFB"/>
<path d="M65.4048 14.4204L65.5971 14.6137L65.4048 14.4204ZM70.4063 14.4204L70.5987 14.6137L70.4063 14.4204ZM24.623 14.6137L24.8154 14.8071L24.623 14.6137Z" fill="white"/>
<path d="M39.8203 14.6138L40.0127 14.8071L39.8203 14.6138ZM44.6295 14.6138L44.8218 14.8071L44.6295 14.6138Z" fill="#FBFBFB"/>
<path d="M44.8223 14.6138L45.0146 14.8071L44.8223 14.6138ZM49.0543 14.6138L49.2467 14.8071L49.0543 14.6138ZM53.8635 14.6138L54.0559 14.8071L53.8635 14.6138Z" fill="white"/>
<path d="M65.2129 14.6138L65.4053 14.8071L65.2129 14.6138Z" fill="#FBFBFB"/>
<path d="M70.2129 14.6138L70.4053 14.8071L70.2129 14.6138Z" fill="white"/>
<path d="M19.6211 14.8071L19.8135 15.0005L19.6211 14.8071Z" fill="#FBFBFB"/>
<path d="M24.4297 14.8071L24.6221 15.0005L24.4297 14.8071Z" fill="white"/>
<path d="M44.2441 14.8071L44.4365 15.0005L44.2441 14.8071Z" fill="#FBFBFB"/>
<path d="M49.4375 14.8071L49.6299 15.0005L49.4375 14.8071Z" fill="white"/>
<path d="M53.8633 14.8071L54.0556 15.0005L53.8633 14.8071ZM65.0205 14.8071L65.2129 15.0005L65.0205 14.8071Z" fill="#FBFBFB"/>
<path d="M70.0215 14.8071L70.2139 15.0005L70.0215 14.8071ZM24.2383 15.0005L24.4306 15.1938L24.2383 15.0005Z" fill="white"/>
<path d="M39.8203 15.0005V26.6009H40.0127V18.6739L39.8203 15.0005Z" fill="#FBFBFB"/>
<path d="M43.8594 15.0005L44.0517 15.1938L43.8594 15.0005Z" fill="white"/>
<path d="M64.8281 15.0005L65.0205 15.1938L64.8281 15.0005Z" fill="#FBFBFB"/>
<path d="M69.8282 15.0005L70.0205 15.1938L69.8282 15.0005ZM24.0449 15.1938L24.2373 15.3872L24.0449 15.1938ZM43.4739 15.1938L43.6663 15.3872L43.4739 15.1938ZM49.822 15.1938L50.0144 15.3872L49.822 15.1938ZM54.0541 15.1938L54.2465 15.3872L54.0541 15.1938Z" fill="white"/>
<path d="M64.6348 15.1938L64.8271 15.3872L64.6348 15.1938Z" fill="#FBFBFB"/>
<path d="M69.6367 15.1938L69.8291 15.3872L69.6367 15.1938Z" fill="white"/>
<path d="M19.0449 15.3872L19.2373 15.5805L19.0449 15.3872Z" fill="#FBFBFB"/>
<path d="M23.8535 15.3872L24.0459 15.5805L23.8535 15.3872ZM50.0154 15.3872L50.2077 15.5805L50.0154 15.3872Z" fill="white"/>
<path d="M54.0547 15.3872L54.2471 15.5805L54.0547 15.3872ZM64.4425 15.3872L64.6348 15.5805L64.4425 15.3872Z" fill="#FBFBFB"/>
<path d="M69.4434 15.3872L69.6357 15.5805L69.4434 15.3872Z" fill="white"/>
<path d="M18.8516 15.5806L19.0439 15.7739L18.8516 15.5806Z" fill="#FBFBFB"/>
<path d="M23.6602 15.5806L23.8525 15.7739L23.6602 15.5806Z" fill="white"/>
<path d="M50.207 15.5806L50.3994 15.7739L50.207 15.5806ZM64.2498 15.5806L64.4422 15.7739L64.2498 15.5806Z" fill="#FBFBFB"/>
<path d="M69.252 15.5806L69.4443 15.7739L69.252 15.5806Z" fill="white"/>
<path d="M18.6602 15.7739L18.8525 15.9673L18.6602 15.7739Z" fill="#FBFBFB"/>
<path d="M23.4688 15.7739L23.6611 15.9673L23.4688 15.7739ZM54.3115 15.9029L54.3757 16.0316L54.3115 15.9029Z" fill="white"/>
<path d="M64.0586 15.7739L64.251 15.9673L64.0586 15.7739Z" fill="#FBFBFB"/>
<path d="M69.0605 15.7739L69.2529 15.9673L69.0605 15.7739Z" fill="white"/>
<path d="M18.4668 15.967L18.6592 16.1604L18.4668 15.967Z" fill="#FBFBFB"/>
<path d="M23.2754 15.967L23.4678 16.1604L23.2754 15.967Z" fill="white"/>
<path d="M50.4006 15.967L50.593 16.1604L50.4006 15.967ZM63.8663 15.967L64.0586 16.1604L63.8663 15.967ZM18.2754 16.1604L18.4678 16.3537L18.2754 16.1604ZM54.2479 16.1604V16.7404H54.4403L54.2479 16.1604ZM63.6739 16.1604L63.8663 16.3537L63.6739 16.1604ZM68.4831 16.1604L68.6754 16.3537L68.4831 16.1604Z" fill="#FBFBFB"/>
<path d="M22.8926 16.3538L23.0849 16.5471L22.8926 16.3538Z" fill="white"/>
<path d="M63.4804 16.3538L63.6727 16.5471L63.4804 16.3538ZM68.2895 16.3538L68.4819 16.5471L68.2895 16.3538ZM50.5918 16.5471L50.7842 16.7404L50.5918 16.5471ZM63.288 16.5471L63.4804 16.7404L63.288 16.5471Z" fill="#FBFBFB"/>
<path d="M68.0987 16.5471L68.291 16.7405L68.0987 16.5471ZM22.5078 16.7405L22.7002 16.9338L22.5078 16.7405ZM50.5933 16.7405V26.7941H50.7857V20.0272L50.5933 16.7405Z" fill="white"/>
<path d="M63.0957 16.7405L63.2881 16.9338L63.0957 16.7405Z" fill="#FBFBFB"/>
<path d="M67.9062 16.7405L68.0986 16.9338L67.9062 16.7405Z" fill="white"/>
<path d="M62.9041 16.9338L63.0964 17.1272L62.9041 16.9338ZM2.69333 17.1272L2.88569 17.3205L2.69333 17.1272ZM62.7117 17.1272L62.9041 17.3205L62.7117 17.1272ZM2.30859 17.3205L2.50096 17.5139L2.30859 17.3205Z" fill="#FBFBFB"/>
<path d="M21.9297 17.3206L22.1221 17.5139L21.9297 17.3206Z" fill="white"/>
<path d="M62.5195 17.3206L62.7119 17.5139L62.5195 17.3206Z" fill="#FBFBFB"/>
<path d="M2.88477 17.5139L3.07713 17.7073L2.88477 17.5139ZM22.1214 17.5139L22.3138 17.7073L22.1214 17.5139Z" fill="white"/>
<path d="M62.326 17.5139L62.5184 17.7073L62.326 17.5139ZM66.9428 17.5139L67.1352 17.7073L66.9428 17.5139ZM2.88477 17.7073L3.07713 17.9006L2.88477 17.7073Z" fill="#FBFBFB"/>
<path d="M22.3145 17.7073L22.5068 17.9006L22.3145 17.7073ZM61.3649 17.7073L61.5572 17.9006L61.3649 17.7073Z" fill="white"/>
<path d="M62.1336 17.7073L62.326 17.9006L62.1336 17.7073ZM66.7504 17.7073L66.9428 17.9006L66.7504 17.7073ZM2.11523 17.9006L2.3076 18.094L2.11523 17.9006ZM61.3641 17.9006L61.7489 18.4806L61.3641 17.9006ZM61.9412 17.9006L62.1336 18.094L61.9412 17.9006Z" fill="#FBFBFB"/>
<path d="M66.5591 17.9006L66.7514 18.094L66.5591 17.9006ZM3.07812 18.094L3.27049 18.2873L3.07812 18.094ZM22.6995 18.094L22.8919 18.2873L22.6995 18.094Z" fill="white"/>
<path d="M61.75 18.094L61.9424 18.2873L61.75 18.094Z" fill="#FBFBFB"/>
<path d="M66.3666 18.094L66.559 18.2873L66.3666 18.094ZM1.92383 18.2873L2.11619 18.4807L1.92383 18.2873Z" fill="white"/>
<path d="M3.07812 18.2871L3.27049 18.4804L3.07812 18.2871Z" fill="#FBFBFB"/>
<path d="M66.1738 18.2871L66.3662 18.4804L66.1738 18.2871Z" fill="white"/>
<path d="M1.92383 18.4805L2.11619 18.6738L1.92383 18.4805Z" fill="#FBFBFB"/>
<path d="M3.26953 18.6738L3.4619 18.8672L3.26953 18.6738ZM18.2741 18.6738V20.0272H18.4665L18.2741 18.6738Z" fill="white"/>
<path d="M23.0832 18.6738L23.2755 18.8672L23.0832 18.6738ZM65.5962 18.6738L65.7885 18.8672L65.5962 18.6738ZM3.2694 18.8672L3.46177 19.0605L3.2694 18.8672ZM23.2755 18.8672L23.4679 19.0605L23.2755 18.8672ZM1.73047 19.0605L1.92284 19.2538L1.73047 19.0605Z" fill="#FBFBFB"/>
<path d="M18.6602 19.0605L18.8525 19.2539L18.6602 19.0605Z" fill="white"/>
<path d="M23.4688 19.0605L23.6611 19.2539L23.4688 19.0605ZM65.2123 19.0605L65.4047 19.2539L65.2123 19.0605Z" fill="#FBFBFB"/>
<path d="M3.46289 19.2539L3.65526 19.4472L3.46289 19.2539ZM18.8522 19.2539L19.0446 19.4472L18.8522 19.2539Z" fill="white"/>
<path d="M23.6614 19.2539L23.8537 19.4472L23.6614 19.2539ZM65.0202 19.2539L65.2126 19.4472L65.0202 19.2539ZM3.46289 19.4472L3.65526 19.6406L3.46289 19.4472Z" fill="#FBFBFB"/>
<path d="M19.0449 19.4473L19.2373 19.6406L19.0449 19.4473Z" fill="white"/>
<path d="M23.8535 19.4473L24.0459 19.6406L23.8535 19.4473Z" fill="#FBFBFB"/>
<path d="M64.8277 19.4473L65.02 19.6406L64.8277 19.4473ZM1.53906 19.6406L1.73143 19.8339L1.53906 19.6406ZM19.2368 19.6406L19.4292 19.8339L19.2368 19.6406Z" fill="white"/>
<path d="M64.6353 19.6406L64.8277 19.834L64.6353 19.6406ZM1.53906 19.834L1.73143 20.0273L1.53906 19.834Z" fill="#FBFBFB"/>
<path d="M3.6543 19.834L3.84666 20.0273L3.6543 19.834ZM19.4284 19.834L19.6207 20.0273L19.4284 19.834ZM65.0192 19.834L65.2116 20.0273L65.0192 19.834Z" fill="white"/>
<path d="M3.6543 20.0273L3.84666 20.2207L3.6543 20.0273ZM19.6207 20.0273L19.8131 20.2207L19.6207 20.0273Z" fill="#FBFBFB"/>
<path d="M65.2114 20.0273L65.4038 20.2207L65.2114 20.0273ZM1.3457 20.2207L1.53807 20.414L1.3457 20.2207ZM18.274 20.2207V23.8941H18.4663L18.274 20.2207Z" fill="white"/>
<path d="M19.8145 20.2207L20.0068 20.414L19.8145 20.2207ZM24.6236 20.2207L24.816 20.414L24.6236 20.2207Z" fill="#FBFBFB"/>
<path d="M65.4043 20.2207L65.5967 20.414L65.4043 20.2207Z" fill="white"/>
<path d="M20.0059 20.4141L20.1982 20.6074L20.0059 20.4141ZM24.815 20.4141L25.0074 20.6074L24.815 20.4141Z" fill="#FBFBFB"/>
<path d="M65.5977 20.4141L65.79 20.6074L65.5977 20.4141Z" fill="white"/>
<path d="M3.84766 20.6074L4.04002 20.8008L3.84766 20.6074ZM20.1988 20.6074L20.3912 20.8008L20.1988 20.6074ZM25.008 20.6074L25.2003 20.8008L25.008 20.6074ZM61.3653 20.6074L61.5576 20.8008L61.3653 20.6074ZM65.7897 20.6074L65.9821 20.8008L65.7897 20.6074Z" fill="#FBFBFB"/>
<path d="M111.367 20.7481C109.897 20.5948 106.962 20.7868 105.846 21.8436C104.395 23.2178 105.611 25.3784 107.341 25.5984C108.401 25.7334 111.064 26.0035 111.76 24.971C112.226 24.2789 112.452 20.8612 111.367 20.7481Z" fill="#141416"/>
<path d="M1.1543 20.8005L1.34666 20.9939L1.1543 20.8005Z" fill="white"/>
<path d="M20.3906 20.8005L20.583 20.9939L20.3906 20.8005ZM25.1998 20.8005L25.3922 20.9939L25.1998 20.8005Z" fill="#FBFBFB"/>
<path d="M61.4297 20.9297L61.4939 21.0585L61.4297 20.9297Z" fill="white"/>
<path d="M65.9818 20.8005L66.1742 20.9939L65.9818 20.8005ZM1.1543 20.9939L1.34666 21.1872L1.1543 20.9939Z" fill="#FBFBFB"/>
<path d="M4.03906 20.9939L4.23143 21.1872L4.03906 20.9939Z" fill="white"/>
<path d="M25.3926 20.9939L25.5849 21.1872L25.3926 20.9939Z" fill="#FBFBFB"/>
<path d="M61.75 20.9939L61.9424 21.1872L61.75 20.9939Z" fill="white"/>
<path d="M66.1735 20.9939L66.3658 21.1872L66.1735 20.9939ZM4.03906 21.1872L4.23143 21.3806L4.03906 21.1872ZM20.775 21.1872L20.9673 21.3806L20.775 21.1872ZM25.5841 21.1872L25.7765 21.3806L25.5841 21.1872ZM61.3643 21.1872V26.7941H61.5567L61.3643 21.1872Z" fill="#FBFBFB"/>
<path d="M61.9414 21.1873L62.1338 21.3806L61.9414 21.1873Z" fill="white"/>
<path d="M66.3672 21.1873L66.5596 21.3806L66.3672 21.1873Z" fill="#FBFBFB"/>
<path d="M0.960938 21.3806L1.1533 21.574L0.960938 21.3806Z" fill="white"/>
<path d="M25.7773 21.3806L25.9697 21.574L25.7773 21.3806Z" fill="#FBFBFB"/>
<path d="M62.1348 21.3806L62.3271 21.574L62.1348 21.3806Z" fill="white"/>
<path d="M0.960938 21.574L1.1533 21.7673L0.960938 21.574Z" fill="#FBFBFB"/>
<path d="M25.9698 21.574L26.1622 21.7673L25.9698 21.574ZM62.3271 21.574L62.5195 21.7673L62.3271 21.574ZM4.23242 21.7673L4.42479 21.9607L4.23242 21.7673ZM21.1607 21.7673L21.353 21.9607L21.1607 21.7673ZM26.1622 21.7673L26.3546 21.9607L26.1622 21.7673Z" fill="white"/>
<path d="M62.5195 21.7673L62.7119 21.9607L62.5195 21.7673Z" fill="#FBFBFB"/>
<path d="M67.136 21.7673L67.3284 21.9607L67.136 21.7673ZM0.769531 21.9607L0.961898 22.154L0.769531 21.9607ZM26.3543 21.9607L26.5466 22.154L26.3543 21.9607Z" fill="white"/>
<path d="M62.7109 21.9607L62.9033 22.154L62.7109 21.9607Z" fill="#FBFBFB"/>
<path d="M67.3281 21.9607L67.5205 22.154L67.3281 21.9607Z" fill="white"/>
<path d="M0.769531 22.1541L0.961898 22.3474L0.769531 22.1541Z" fill="#FBFBFB"/>
<path d="M26.5469 22.1541L26.7392 22.3474L26.5469 22.1541Z" fill="white"/>
<path d="M62.9043 22.1541L63.0967 22.3474L62.9043 22.1541Z" fill="#FBFBFB"/>
<path d="M67.5201 22.1541L67.7124 22.3474L67.5201 22.1541ZM4.42383 22.3474L4.61619 22.5407L4.42383 22.3474ZM21.7368 22.3474L21.9292 22.5407L21.7368 22.3474ZM26.7383 22.3474L26.9307 22.5407L26.7383 22.3474Z" fill="white"/>
<path d="M63.0957 22.3474L63.2881 22.5408L63.0957 22.3474Z" fill="#FBFBFB"/>
<path d="M67.7121 22.3474L67.9045 22.5408L67.7121 22.3474ZM0.576172 22.5408L0.768538 22.7341L0.576172 22.5408ZM21.9289 22.5408L22.1212 22.7341L21.9289 22.5408ZM26.9304 22.5408L27.1228 22.7341L26.9304 22.5408Z" fill="white"/>
<path d="M63.2877 22.5408L63.48 22.7341L63.2877 22.5408ZM67.9045 22.5408L68.0968 22.7341L67.9045 22.5408ZM0.576172 22.7341L0.768538 22.9275L0.576172 22.7341Z" fill="#FBFBFB"/>
<path d="M22.123 22.7341L22.3154 22.9275L22.123 22.7341Z" fill="white"/>
<path d="M63.4805 22.7341L63.6728 22.9275L63.4805 22.7341ZM68.0973 22.7341L68.2896 22.9275L68.0973 22.7341Z" fill="#FBFBFB"/>
<path d="M4.61719 22.9275L4.80955 23.1208L4.61719 22.9275ZM22.3149 22.9275L22.5073 23.1208L22.3149 22.9275Z" fill="white"/>
<path d="M68.291 22.9275L68.4834 23.1208L68.291 22.9275Z" fill="#FBFBFB"/>
<path d="M0.384766 23.1206L0.577132 23.3139L0.384766 23.1206Z" fill="white"/>
<path d="M2.88477 23.1206V23.7006H3.07713L2.88477 23.1206ZM4.61606 23.1206L4.80843 23.3139L4.61606 23.1206Z" fill="#FBFBFB"/>
<path d="M22.5078 23.1206L22.7002 23.3139L22.5078 23.1206ZM27.5093 23.1206L27.7017 23.3139L27.5093 23.1206Z" fill="white"/>
<path d="M0.384766 23.314L0.577132 23.5073L0.384766 23.314ZM2.11606 23.314L2.30843 23.5073L2.11606 23.314Z" fill="#FBFBFB"/>
<path d="M2.88477 23.314L3.07713 23.5073L2.88477 23.314Z" fill="white"/>
<path d="M22.6992 23.314L22.8916 23.5073L22.6992 23.314Z" fill="#FBFBFB"/>
<path d="M27.7012 23.314L27.8935 23.5073L27.7012 23.314Z" fill="white"/>
<path d="M64.0572 23.314L64.2496 23.5073L64.0572 23.314ZM1.73047 23.5073L1.92284 23.7006L1.73047 23.5073Z" fill="#FBFBFB"/>
<path d="M3.07812 23.5073L3.27049 23.7007L3.07812 23.5073Z" fill="white"/>
<path d="M3.26953 23.5073L3.4619 23.7007L3.26953 23.5073Z" fill="white"/>
<path d="M4.80859 23.5073L5.00096 23.7007L4.80859 23.5073ZM14.4269 23.5073V24.0873H14.6193L14.4269 23.5073ZM22.8911 23.5073L23.0834 23.7007L22.8911 23.5073ZM68.8667 23.5073L69.059 23.7007L68.8667 23.5073Z" fill="#FBFBFB"/>
<path d="M69.0586 23.5073L69.251 23.7007L69.0586 23.5073ZM0.191406 23.7007L0.383773 23.894L0.191406 23.7007ZM1.53797 23.7007L1.73034 23.894L1.53797 23.7007ZM3.0769 23.7007L3.26927 23.894L3.0769 23.7007Z" fill="white"/>
<path d="M23.083 23.7007L23.2754 23.894L23.083 23.7007ZM0.191406 23.894L0.383773 24.0874L0.191406 23.894ZM1.15324 23.894L1.34561 24.0874L1.15324 23.894Z" fill="#FBFBFB"/>
<path d="M1.3457 23.894L1.53807 24.0874L1.3457 23.894Z" fill="white"/>
<path d="M2.30859 23.894L2.50096 24.0874L2.30859 23.894ZM3.07806 23.894L3.27043 24.0874L3.07806 23.894Z" fill="#FBFBFB"/>
<path d="M3.84766 23.894L4.04002 24.0874L3.84766 23.894Z" fill="white"/>
<path d="M23.2754 23.894L23.4678 24.0874L23.2754 23.894Z" fill="#FBFBFB"/>
<path d="M28.2773 23.894L28.4697 24.0874L28.2773 23.894ZM69.4438 23.894L69.6362 24.0874L69.4438 23.894Z" fill="white"/>
<path d="M0.960938 24.0874L1.1533 24.2807L0.960938 24.0874Z" fill="#FBFBFB"/>
<path d="M2.30859 24.0874L2.50096 24.2807L2.30859 24.0874ZM3.27043 24.0874L3.46279 24.2807L3.27043 24.0874ZM5.00173 24.0874L5.19409 24.2807L5.00173 24.0874Z" fill="white"/>
<path d="M23.4688 24.0874L23.6611 24.2807L23.4688 24.0874Z" fill="#FBFBFB"/>
<path d="M69.6367 24.0874L69.8291 24.2807L69.6367 24.0874ZM0 24.2807L0.192367 24.4741L0 24.2807ZM0.769466 24.2807L0.961833 24.4741L0.769466 24.2807Z" fill="white"/>
<path d="M4.42383 24.2808L4.61619 24.4741L4.42383 24.2808ZM5.06498 24.4097L5.12924 24.5385L5.06498 24.4097ZM23.6605 24.2808L23.8528 24.4741L23.6605 24.2808Z" fill="#FBFBFB"/>
<path d="M69.8281 24.2808L70.0205 24.4741L69.8281 24.2808Z" fill="white"/>
<path d="M0.384766 24.4741L0.577132 24.6675L0.384766 24.4741ZM2.5008 24.4741L2.69316 24.6675L2.5008 24.4741ZM3.46263 24.4741L3.655 24.6675L3.46263 24.4741Z" fill="#FBFBFB"/>
<path d="M4.61719 24.4741L4.80955 24.6675L4.61719 24.4741ZM14.2355 24.4741L14.4279 24.6675L14.2355 24.4741Z" fill="white"/>
<path d="M18.082 24.4741L18.2744 24.6675L18.082 24.4741Z" fill="#FBFBFB"/>
<path d="M65.0191 24.4741L65.2115 24.6675L65.0191 24.4741ZM70.0207 24.4741L70.213 24.6675L70.0207 24.4741ZM2.5 24.6675L2.69237 24.8608L2.5 24.6675Z" fill="white"/>
<path d="M14.2344 24.6675L14.4267 24.8608L14.2344 24.6675Z" fill="#FBFBFB"/>
<path d="M18.1465 24.7964L18.2107 24.9252L18.1465 24.7964ZM65.2122 24.6675L65.4046 24.8608L65.2122 24.6675Z" fill="white"/>
<path d="M70.2129 24.6675L70.4053 24.8608L70.2129 24.6675Z" fill="#FBFBFB"/>
<path d="M29.2402 24.8608L29.4326 25.0542L29.2402 24.8608ZM65.4051 24.8608L65.5975 25.0542L65.4051 24.8608Z" fill="white"/>
<path d="M70.4062 24.8608L70.5986 25.0542L70.4062 24.8608Z" fill="#FBFBFB"/>
<path d="M2.69336 25.0542L2.88573 25.2475L2.69336 25.0542ZM3.84756 25.0542L4.03993 25.2475L3.84756 25.0542ZM14.043 25.0542L14.2354 25.2475L14.043 25.0542ZM24.2384 25.0542L24.4308 25.2475L24.2384 25.0542ZM65.5972 25.0542L65.7896 25.2475L65.5972 25.0542Z" fill="white"/>
<path d="M70.5977 25.0542L70.79 25.2475L70.5977 25.0542Z" fill="#FBFBFB"/>
<path d="M4.03906 25.2476L4.23143 25.4409L4.03906 25.2476Z" fill="white"/>
<path d="M14.043 25.2476L14.2353 25.4409L14.043 25.2476Z" fill="#FBFBFB"/>
<path d="M65.7891 25.2476L65.9814 25.4409L65.7891 25.2476Z" fill="white"/>
<path d="M70.791 25.2476L70.9834 25.4409L70.791 25.2476Z" fill="#FBFBFB"/>
<path d="M2.88477 25.4407L3.07713 25.634L2.88477 25.4407Z" fill="white"/>
<path d="M17.8906 25.4407L18.083 25.634L17.8906 25.4407Z" fill="#FBFBFB"/>
<path d="M24.623 25.4407L24.8154 25.634L24.623 25.4407Z" fill="white"/>
<path d="M65.9809 25.4407L66.1733 25.634L65.9809 25.4407ZM13.8496 25.634L14.042 25.8274L13.8496 25.634Z" fill="#FBFBFB"/>
<path d="M17.8906 25.634L18.083 25.8274L17.8906 25.634Z" fill="white"/>
<path d="M66.1738 25.634L66.3662 25.8274L66.1738 25.634Z" fill="#FBFBFB"/>
<path d="M71.3672 25.634L71.5596 25.8274L71.3672 25.634Z" fill="white"/>
<path d="M3.07812 25.8274L3.27049 26.0207L3.07812 25.8274ZM4.42469 25.8274L4.61706 26.0207L4.42469 25.8274Z" fill="#FBFBFB"/>
<path d="M25.0078 25.8274L25.2002 26.0207L25.0078 25.8274ZM30.2017 25.8274L30.3941 26.0207L30.2017 25.8274Z" fill="white"/>
<path d="M66.3666 25.8274L66.559 26.0207L66.3666 25.8274ZM13.6582 26.0207L13.8506 26.2141L13.6582 26.0207ZM17.6979 26.0207L17.8903 26.2141L17.6979 26.0207Z" fill="#FBFBFB"/>
<path d="M25.1992 26.0208L25.3916 26.2141L25.1992 26.0208ZM30.3931 26.0208L30.5855 26.2141L30.3931 26.0208Z" fill="white"/>
<path d="M66.5586 26.0208L66.751 26.2141L66.5586 26.0208Z" fill="#FBFBFB"/>
<path d="M71.752 26.0208V26.6008H71.9444L71.752 26.0208ZM3.26953 26.2141L3.4619 26.4074L3.26953 26.2141ZM5.00083 26.2141L5.1932 26.4074L5.00083 26.2141ZM13.465 26.2141L13.6573 26.4074L13.465 26.2141ZM17.697 26.2141L17.8894 26.4074L17.697 26.2141ZM25.3917 26.2141L25.5841 26.4074L25.3917 26.2141ZM30.5856 26.2141L30.7779 26.4074L30.5856 26.2141Z" fill="white"/>
<path d="M66.7515 26.2141L66.9439 26.4075L66.7515 26.2141ZM3.46289 26.4075L3.65526 26.6008L3.46289 26.4075Z" fill="#FBFBFB"/>
<path d="M5.19336 26.4075L5.38573 26.6008L5.19336 26.4075ZM25.5842 26.4075L25.7766 26.6008L25.5842 26.4075Z" fill="white"/>
<path d="M66.944 26.4075L67.1364 26.6008L66.944 26.4075ZM5.38672 26.6008L5.57909 26.7941L5.38672 26.6008ZM13.2737 26.6008L13.4661 26.7941L13.2737 26.6008Z" fill="#FBFBFB"/>
<path d="M17.5059 26.6008L17.6982 26.7942L17.5059 26.6008Z" fill="white"/>
<path d="M25.7773 26.6008L25.9697 26.7942L25.7773 26.6008ZM57.7102 26.6008L57.9026 26.7942L57.7102 26.6008ZM67.1362 26.6008L67.3285 26.7942L67.1362 26.6008Z" fill="#FBFBFB"/>
<path d="M3.6543 26.7942L3.84666 26.9875L3.6543 26.7942ZM5.77033 26.7942L5.9627 26.9875L5.77033 26.7942Z" fill="white"/>
<path d="M25.9688 26.7942L26.1611 26.9875L25.9688 26.7942ZM39.8832 26.9231L39.9474 27.0519L39.8832 26.9231Z" fill="#FBFBFB"/>
<path d="M57.7734 26.9231L57.8377 27.0519L57.7734 26.9231ZM61.3643 26.7942L61.5567 26.9875L61.3643 26.7942Z" fill="white"/>
<path d="M67.3286 26.7942L67.521 26.9875L67.3286 26.7942ZM3.84766 26.9875L4.04002 27.1809L3.84766 26.9875ZM5.96369 26.9875L6.15605 27.1809L5.96369 26.9875Z" fill="#FBFBFB"/>
<path d="M6.15625 26.9875L6.34862 27.1809L6.15625 26.9875Z" fill="white"/>
<path d="M17.3125 26.9875L17.5049 27.1809L17.3125 26.9875ZM26.1614 26.9875L26.3537 27.1809L26.1614 26.9875ZM30.3934 26.9875L30.5858 27.1809L30.3934 26.9875ZM61.3644 26.9875L61.5568 27.1809L61.3644 26.9875Z" fill="#FBFBFB"/>
<path d="M71.5605 26.9875L71.7529 27.1809L71.5605 26.9875Z" fill="white"/>
<path d="M4.03906 27.1809L4.23143 27.3742L4.03906 27.1809ZM6.34746 27.1809L6.53983 27.3742L6.34746 27.1809Z" fill="#FBFBFB"/>
<path d="M6.54102 27.1809L6.73338 27.3742L6.54102 27.1809ZM12.5044 27.1809L12.6967 27.3742L12.5044 27.1809Z" fill="white"/>
<path d="M26.3535 27.1809L26.5459 27.3742L26.3535 27.1809ZM32.7016 27.1809L32.894 27.3742L32.7016 27.1809Z" fill="#FBFBFB"/>
<path d="M39.8203 27.1809L40.0127 27.3742L39.8203 27.1809ZM61.4294 27.3099L61.4937 27.4386L61.4294 27.3099ZM67.5211 27.1809L67.7135 27.3742L67.5211 27.1809Z" fill="white"/>
<path d="M4.23242 27.3743L4.42479 27.5676L4.23242 27.3743Z" fill="#FBFBFB"/>
<path d="M6.92578 27.3743L7.11815 27.5676L6.92578 27.3743ZM12.1197 27.3743L12.312 27.5676L12.1197 27.3743Z" fill="white"/>
<path d="M12.3105 27.3743L12.5029 27.5676L12.3105 27.3743ZM17.1197 27.3743L17.3121 27.5676L17.1197 27.3743Z" fill="#FBFBFB"/>
<path d="M26.5469 27.3743L26.7392 27.5676L26.5469 27.3743Z" fill="white"/>
<path d="M30.2012 27.3743L30.3935 27.5676L30.2012 27.3743Z" fill="#FBFBFB"/>
<path d="M32.7031 27.3743L32.8955 27.5676L32.7031 27.3743ZM50.7856 27.3743L50.9779 27.5676L50.7856 27.3743Z" fill="white"/>
<path d="M57.9023 27.3743L58.0947 27.5676L57.9023 27.3743ZM71.368 27.3743L71.5604 27.5676L71.368 27.3743Z" fill="#FBFBFB"/>
<path d="M7.63086 27.632L7.75898 27.6966L7.63086 27.632ZM11.5423 27.5676L11.7346 27.761L11.5423 27.5676Z" fill="white"/>
<path d="M11.7344 27.5676L11.9267 27.761L11.7344 27.5676Z" fill="#FBFBFB"/>
<path d="M26.7383 27.5676L26.9306 27.761L26.7383 27.5676Z" fill="white"/>
<path d="M40.0126 27.5676L40.205 27.761L40.0126 27.5676ZM61.3653 27.5676L61.173 28.1476L61.3653 27.5676ZM68.0981 27.5676L68.2905 27.761L68.0981 27.5676ZM71.176 27.5676L71.3684 27.761L71.176 27.5676ZM4.61719 27.761L4.80955 27.9543L4.61719 27.761ZM8.27215 27.761V27.9543H8.84925L8.27215 27.761Z" fill="#FBFBFB"/>
<path d="M8.84961 27.761V27.9543H10.5809L8.84961 27.761Z" fill="white"/>
<path d="M10.709 27.8252L10.8371 27.8898L10.709 27.8252Z" fill="#FBFBFB"/>
<path d="M16.9277 27.761L17.1201 27.9543L16.9277 27.761ZM32.8942 27.761L33.0865 27.9543L32.8942 27.761Z" fill="white"/>
<path d="M40.2051 27.761L40.3974 27.9543L40.2051 27.761Z" fill="#FBFBFB"/>
<path d="M58.0938 27.761L58.2861 27.9543L58.0938 27.761Z" fill="white"/>
<path d="M68.2896 27.761L68.4819 27.9543L68.2896 27.761ZM4.80859 27.9543L5.00096 28.1477L4.80859 27.9543Z" fill="#FBFBFB"/>
<path d="M16.7363 27.9541L16.9287 28.1474L16.7363 27.9541Z" fill="white"/>
<path d="M27.3164 27.9541L27.5088 28.1474L27.3164 27.9541ZM29.6248 27.9541L29.8172 28.1474L29.6248 27.9541ZM33.2798 27.9541L33.4721 28.1474L33.2798 27.9541ZM36.1653 27.9541L36.3576 28.1474L36.1653 27.9541ZM40.3973 27.9541L40.5897 28.1474L40.3973 27.9541ZM43.2828 27.9541L43.4752 28.1474L43.2828 27.9541ZM51.3622 27.9541L51.5546 28.1474L51.3622 27.9541ZM54.2477 27.9541L54.4401 28.1474L54.2477 27.9541ZM58.4798 27.9541L58.6722 28.1474L58.4798 27.9541Z" fill="#FBFBFB"/>
<path d="M61.3652 27.9541L61.5576 28.1474L61.3652 27.9541ZM68.4828 27.9541L68.6752 28.1474L68.4828 27.9541Z" fill="white"/>
<path d="M70.7913 27.9541L70.9837 28.1474L70.7913 27.9541ZM5.00195 28.1474L5.19432 28.3408L5.00195 28.1474ZM16.5439 28.1474L16.7363 28.3408L16.5439 28.1474Z" fill="#FBFBFB"/>
<path d="M27.5078 28.1475L27.7002 28.3408L27.5078 28.1475Z" fill="white"/>
<path d="M27.7012 28.1475L27.8935 28.3408L27.7012 28.1475ZM29.2401 28.1475L29.4325 28.3408L29.2401 28.1475Z" fill="#FBFBFB"/>
<path d="M29.4316 28.1475L29.624 28.3408L29.4316 28.1475ZM33.6637 28.1475L33.8561 28.3408L33.6637 28.1475Z" fill="white"/>
<path d="M33.8574 28.1475V28.3408H34.4345L33.8574 28.1475ZM35.0116 28.1475V28.3408H35.5887L35.0116 28.1475Z" fill="#FBFBFB"/>
<path d="M35.7168 28.2118L35.8449 28.2764L35.7168 28.2118ZM40.7824 28.1475L40.9748 28.3408L40.7824 28.1475Z" fill="white"/>
<path d="M41.1035 28.2118L41.2316 28.2764L41.1035 28.2118ZM42.1294 28.1475V28.3408H42.7065L42.1294 28.1475Z" fill="#FBFBFB"/>
<path d="M42.834 28.2118L42.9621 28.2764L42.834 28.2118ZM51.7469 28.1475L51.9393 28.3408L51.7469 28.1475Z" fill="white"/>
<path d="M52.0684 28.2118L52.1965 28.2764L52.0684 28.2118ZM53.0943 28.1475V28.3408H53.6714L53.0943 28.1475Z" fill="#FBFBFB"/>
<path d="M53.7988 28.2119L53.9269 28.2765L53.7988 28.2119ZM58.8004 28.2119L58.9285 28.2765L58.8004 28.2119Z" fill="white"/>
<path d="M59.1855 28.2119L59.3137 28.2765L59.1855 28.2119ZM60.3397 28.2119L60.4679 28.2765L60.3397 28.2119Z" fill="#FBFBFB"/>
<path d="M60.7246 28.2118L60.8527 28.2764L60.7246 28.2118ZM68.8681 28.1475L69.0604 28.3408L68.8681 28.1475Z" fill="white"/>
<path d="M69.0605 28.1475L69.2529 28.3408L69.0605 28.1475ZM70.4071 28.1475L70.5995 28.3408L70.4071 28.1475Z" fill="#FBFBFB"/>
<path d="M70.5977 28.1475L70.79 28.3408L70.5977 28.1475Z" fill="white"/>
<path d="M5.19336 28.3408L5.38573 28.5342L5.19336 28.3408ZM16.3506 28.3408L16.543 28.5342L16.3506 28.3408Z" fill="#FBFBFB"/>
<path d="M28.2783 28.3408V28.5342H28.8554L28.2783 28.3408ZM5.38672 28.5342L5.57909 28.7275L5.38672 28.5342Z" fill="white"/>
<path d="M5.77148 28.7275L5.96385 28.9209L5.77148 28.7275Z" fill="#FBFBFB"/>
<path d="M5.96289 28.9209L6.15526 29.1142L5.96289 28.9209Z" fill="white"/>
<path d="M6.15625 28.9209L6.34862 29.1142L6.15625 28.9209ZM15.7746 28.9209L15.9669 29.1142L15.7746 28.9209Z" fill="#FBFBFB"/>
<path d="M6.34766 29.1143L6.54002 29.3076L6.34766 29.1143ZM15.5813 29.1143L15.7736 29.3076L15.5813 29.1143ZM6.73239 29.3076L6.92476 29.5009L6.73239 29.3076Z" fill="white"/>
<path d="M6.92578 29.3076L7.11815 29.501L6.92578 29.3076ZM15.1975 29.3076L15.3899 29.501L15.1975 29.3076Z" fill="#FBFBFB"/>
<path d="M15.3889 29.3076L15.5813 29.501L15.3889 29.3076ZM7.11719 29.501L7.30955 29.6943L7.11719 29.501Z" fill="white"/>
<path d="M7.31055 29.501L7.50291 29.6943L7.31055 29.501ZM14.8128 29.501L15.0052 29.6943L14.8128 29.501Z" fill="#FBFBFB"/>
<path d="M15.0052 29.501L15.1976 29.6943L15.0052 29.501ZM7.69531 29.6943L7.88768 29.8877L7.69531 29.6943Z" fill="white"/>
<path d="M7.88672 29.6943L8.07909 29.8877L7.88672 29.6943ZM14.4272 29.6943L14.6195 29.8877L14.4272 29.6943Z" fill="#FBFBFB"/>
<path d="M14.6196 29.6943L14.8119 29.8877L14.6196 29.6943ZM8.27148 29.8877L8.46385 30.081L8.27148 29.8877Z" fill="white"/>
<path d="M8.5918 29.9521L8.71992 30.0167L8.5918 29.9521ZM13.8498 29.8877L14.0421 30.081L13.8498 29.8877Z" fill="#FBFBFB"/>
<path d="M14.0435 29.8877L14.2359 30.081L14.0435 29.8877ZM9.23438 30.081L9.42674 30.2744L9.23438 30.081Z" fill="white"/>
<path d="M9.55469 30.1453L9.68281 30.2098L9.55469 30.1453ZM13.0173 30.1453L13.1454 30.2098L13.0173 30.1453Z" fill="#FBFBFB"/>
<path d="M13.2732 30.0811L13.4656 30.2744L13.2732 30.0811ZM10.5801 30.2744V30.4677H11.1572L10.5801 30.2744Z" fill="white"/>
<path d="M11.1582 30.2742L11.3506 30.4675L11.1582 30.2742Z" fill="#FBFBFB"/>
<path d="M11.3496 30.2742V30.4675H12.3114L11.3496 30.2742Z" fill="white"/>
</svg>
