<svg width="8" height="16" viewBox="0 0 8 16" fill="none" xmlns="http://www.w3.org/2000/svg">
<path fill-rule="evenodd" clip-rule="evenodd" d="M1.87467 3.00206C1.87467 3.3787 1.87467 5.06678 1.87467 5.06678H0.333008V7.59411H1.87467V15.1051H5.04134V7.59411H7.16356C7.16356 7.59411 7.36217 6.3823 7.4594 5.05859C7.18301 5.05859 5.05245 5.05859 5.05245 5.05859C5.05245 5.05859 5.05245 3.58886 5.05245 3.33094C5.05245 3.07166 5.3969 2.72504 5.73856 2.72504C6.07884 2.72504 6.7969 2.72504 7.46356 2.72504C7.46356 2.38115 7.46356 1.19117 7.46356 0.0939941C6.57329 0.0939941 5.56356 0.0939941 5.11773 0.0939941C1.79551 0.0939941 1.87467 2.62405 1.87467 3.00206Z" fill="#31363D"/>
</svg>
