<svg width="22" height="15" viewBox="0 0 22 15" fill="none" xmlns="http://www.w3.org/2000/svg">
<path fill-rule="evenodd" clip-rule="evenodd" d="M7.26313 6.29351V8.9458C7.26313 8.9458 9.79735 8.94236 10.8292 8.94236C10.2704 10.6618 9.40158 11.5981 7.26313 11.5981C5.09901 11.5981 3.40994 9.81688 3.40994 7.61966C3.40994 5.42243 5.09901 3.64121 7.26313 3.64121C8.40733 3.64121 9.14629 4.04953 9.82412 4.61865C10.3667 4.06777 10.3214 3.98926 11.7018 2.6657C10.53 1.58276 8.9725 0.922607 7.26313 0.922607C3.62017 0.922607 0.666992 3.92096 0.666992 7.61966C0.666992 11.3183 3.62017 14.3167 7.26313 14.3167C12.7083 14.3167 14.0392 9.50279 13.598 6.29351C12.309 6.29351 7.26313 6.29351 7.26313 6.29351ZM19.1492 6.42612V4.10536H17.5165V6.42612H15.1654V8.08381H17.5165V10.4709H19.1492V8.08381H21.435V6.42612H19.1492Z" fill="#31363D"/>
</svg>
