<svg width="17" height="18" viewBox="0 0 17 18" fill="none" xmlns="http://www.w3.org/2000/svg">
<g clip-path="url(#clip0_34_54802)">
<path fill-rule="evenodd" clip-rule="evenodd" d="M9.88072 8.5404C9.88072 7.6857 9.19355 6.98901 8.34879 6.98901C7.50402 6.98901 6.81543 7.6857 6.81543 8.5404C6.81543 9.39511 7.50402 10.0904 8.34879 10.0904C9.19355 10.0904 9.88072 9.39511 9.88072 8.5404Z" fill="#31363D"/>
<path fill-rule="evenodd" clip-rule="evenodd" d="M12.5188 0.0939941H4.73988C2.59602 0.0939941 0.852539 1.85942 0.852539 4.02706V5.12309H6.57281C7.17621 4.68783 7.91308 4.43071 8.70957 4.43071C9.50464 4.43071 10.2429 4.68783 10.8463 5.12309H16.4062V4.02706C16.4062 1.85942 14.6627 0.0939941 12.5188 0.0939941ZM14.0934 3.83457C14.0934 4.0759 13.8988 4.27126 13.6617 4.27126H12.3272C12.0901 4.27126 11.8955 4.0759 11.8955 3.83457V2.48429C11.8955 2.24439 12.0901 2.0476 12.3272 2.0476H13.6617C13.8988 2.0476 14.0934 2.24439 14.0934 2.48429V3.83457Z" fill="#31363D"/>
<path fill-rule="evenodd" clip-rule="evenodd" d="M12.401 8.57632C12.401 10.6362 10.7455 12.3111 8.70957 12.3111C6.67361 12.3111 5.01674 10.6362 5.01674 8.57632C5.01674 8.00891 5.1431 7.47167 5.36742 6.98901H0.852539V12.3715C0.852539 14.5406 2.59602 16.3045 4.73988 16.3045H12.5188C14.6627 16.3045 16.4062 14.5406 16.4062 12.3715V6.98901H12.0503C12.276 7.47167 12.401 8.00891 12.401 8.57632Z" fill="#31363D"/>
</g>
<defs>
<clipPath id="clip0_34_54802">
<rect width="16" height="17" fill="white" transform="translate(0.852539 0.0939941)"/>
</clipPath>
</defs>
</svg>
