<svg width="19" height="16" viewBox="0 0 19 16" fill="none" xmlns="http://www.w3.org/2000/svg">
<path fill-rule="evenodd" clip-rule="evenodd" d="M18.8427 1.88305C18.3316 2.61587 17.6927 3.27499 16.9233 3.86179V4.30121C16.9233 5.55668 16.6858 6.8299 16.208 8.11677C15.7261 9.405 15.0233 10.5663 14.0969 11.6021C13.1705 12.6406 12.0302 13.4798 10.6775 14.1308C9.32329 14.7803 7.76217 15.1051 5.99412 15.1051C4.90801 15.1051 3.87051 14.9523 2.87884 14.648C1.88717 14.345 0.953841 13.922 0.0830078 13.3775C0.23023 13.3966 0.378841 13.4075 0.53023 13.4075C0.677452 13.4075 0.838563 13.4075 1.01079 13.4075C2.84134 13.4075 4.43023 12.8739 5.7719 11.8068C4.91912 11.7863 4.16773 11.5311 3.51634 11.0385C2.86773 10.5458 2.42467 9.9222 2.19273 9.16891C2.44551 9.23305 2.68162 9.26171 2.89551 9.26171C3.08717 9.26171 3.26356 9.25352 3.4219 9.23305C3.58162 9.21258 3.7469 9.17983 3.91634 9.13889C3.0219 8.9492 2.28301 8.51388 1.6969 7.83428C1.11079 7.15333 0.816341 6.35228 0.816341 5.43387V5.39975C1.0719 5.52666 1.34551 5.63038 1.63162 5.71362C1.91912 5.79959 2.24412 5.83917 2.60662 5.83917C2.05245 5.50619 1.62745 5.06678 1.32884 4.52092C1.03023 3.97779 0.881619 3.36915 0.881619 2.70047C0.881619 2.03043 1.05245 1.39178 1.39273 0.785871C2.35245 1.95674 3.51217 2.89425 4.87606 3.59432C6.23995 4.29575 7.72051 4.67785 9.31912 4.74062C9.25384 4.49089 9.2219 4.21796 9.2219 3.92456C9.2219 3.4019 9.32329 2.90381 9.52745 2.43164C9.72884 1.9622 10.0066 1.5528 10.3552 1.20755C10.7094 0.863656 11.1122 0.590726 11.5719 0.391488C12.0302 0.193614 12.5247 0.0939941 13.058 0.0939941C13.6344 0.0939941 14.1552 0.204531 14.6261 0.424239C15.0927 0.643948 15.508 0.931889 15.8691 1.28806C16.2969 1.22392 16.7233 1.10929 17.1511 0.941441C17.5747 0.774954 17.9691 0.596185 18.3316 0.406499C17.99 1.28806 17.4261 1.97721 16.6372 2.4794C17.0413 2.4371 17.4261 2.36614 17.7886 2.25969C18.1511 2.15734 18.5038 2.03043 18.8427 1.88305Z" fill="#31363D"/>
</svg>
